<svg width="22" height="16" viewBox="0 0 22 16" fill="none" xmlns="http://www.w3.org/2000/svg">
<path d="M7.19718 7.71739C12.2676 7.71739 12.2676 14.5 7.19718 14.5C4.33701 14.5 1 14.5 1 14.5V7.71739M7.19718 7.71739C4.33701 7.71739 1 7.71739 1 7.71739M7.19718 7.71739C12.2676 7.71738 12.2676 1.50001 7.19718 1.5C4.94366 1.5 1 1.5 1 1.5V7.71739" stroke="#303030" stroke-width="1.5" stroke-linecap="round" stroke-linejoin="round"/>
<path d="M17 5.5C14.7909 5.5 13 7.51472 13 10H21C21 7.51472 19.2091 5.5 17 5.5Z" stroke="#303030" stroke-width="1.5" stroke-linecap="round" stroke-linejoin="round"/>
<path d="M13 10C13 12.4853 14.7909 14.5 17 14.5C19.7552 14.5 20.5 12.5 20.5 12.5" stroke="#303030" stroke-width="1.5" stroke-linecap="round" stroke-linejoin="round"/>
<path d="M19.5 2.5L14.5 2.5" stroke="#303030" stroke-width="1.5" stroke-linecap="round" stroke-linejoin="round"/>
</svg>
