<svg width="19" height="22" viewBox="0 0 19 22" fill="none" xmlns="http://www.w3.org/2000/svg">
<path d="M1 20.4V1.6C1 1.26863 1.26863 1 1.6 1H6.11429C6.44566 1 6.71429 1.26863 6.71429 1.6V20.4C6.71429 20.7314 6.44566 21 6.11428 21H1.6C1.26863 21 1 20.7314 1 20.4Z" stroke="#303030" stroke-width="1.5"/>
<path d="M12.4286 20.4V1.6C12.4286 1.26863 12.6972 1 13.0286 1H17.5429C17.8742 1 18.1429 1.26863 18.1429 1.6V20.4C18.1429 20.7314 17.8742 21 17.5429 21H13.0286C12.6972 21 12.4286 20.7314 12.4286 20.4Z" stroke="#303030" stroke-width="1.5"/>
</svg>
