<svg width="28" height="28" viewBox="0 0 28 28" fill="none" xmlns="http://www.w3.org/2000/svg">
<circle cx="13.9375" cy="13.9375" r="12.9375" stroke="#303030" stroke-width="2" stroke-linecap="round" stroke-linejoin="round"/>
<path d="M19.6875 2.4375V3.3125C19.6875 4.41707 18.7921 5.3125 17.6875 5.3125H15.9375C14.8329 5.3125 13.9375 6.20793 13.9375 7.3125V8.1875C13.9375 8.98141 13.2939 9.625 12.5 9.625V9.625C11.7061 9.625 11.0625 10.2686 11.0625 11.0625V13.375C11.0625 14.4796 11.9579 15.375 13.0625 15.375H17.6875C18.7921 15.375 19.6875 16.2704 19.6875 17.375V19.125C19.6875 20.2296 20.5829 21.125 21.6875 21.125H24M12.5 26.875V23.125C12.5 22.0204 11.6046 21.125 10.5 21.125H10.1875C9.08293 21.125 8.1875 20.2296 8.1875 19.125V18.9639C8.1875 18.5022 8.02777 18.0548 7.73541 17.6975L1.71875 10.3438" stroke="#303030" stroke-width="2" stroke-linecap="round" stroke-linejoin="round"/>
</svg>
