<svg width="1134" height="1150" viewBox="0 0 1134 1150" fill="none" xmlns="http://www.w3.org/2000/svg">
<g filter="url(#filter0_f_28_11)">
<path fill-rule="evenodd" clip-rule="evenodd" d="M574.869 386.045C597.935 379.298 624.455 376.6 646.356 386.488C668.37 396.427 680.306 420.285 694.291 439.962C706.758 457.506 714.519 477.33 724.473 496.409C734.567 515.756 752.553 532.478 753.917 554.252C755.284 576.074 739.444 594.931 731.931 615.468C724.827 634.887 721.475 655.606 710.439 673.097C699.072 691.112 685.527 709.007 666.659 718.917C647.908 728.765 624.13 721.005 604.426 728.777C579.907 738.447 563.908 767.654 537.635 769.805C512.882 771.83 487.167 757.845 470.158 739.765C452.924 721.446 453.498 692.966 443.603 669.851C435.62 651.207 426.706 633.517 417.038 615.686C405.353 594.137 381.978 577.238 380.134 552.8C378.344 529.086 394.88 507.753 407.363 487.504C419.361 468.044 432.18 447.589 452.018 436.204C471.563 424.989 497.083 432.564 517.947 424.046C539.253 415.346 552.78 392.505 574.869 386.045Z" fill="#FFB235"/>
</g>
<defs>
<filter id="filter0_f_28_11" x="0" y="0" width="1134" height="1150" filterUnits="userSpaceOnUse" color-interpolation-filters="sRGB">
<feFlood flood-opacity="0" result="BackgroundImageFix"/>
<feBlend mode="normal" in="SourceGraphic" in2="BackgroundImageFix" result="shape"/>
<feGaussianBlur stdDeviation="190" result="effect1_foregroundBlur_28_11"/>
</filter>
</defs>
</svg>
