<svg width="1162" height="1180" viewBox="0 0 1162 1180" fill="none" xmlns="http://www.w3.org/2000/svg">
<g filter="url(#filter0_f_28_12)">
<path fill-rule="evenodd" clip-rule="evenodd" d="M589.458 386.51C614.251 379.244 642.757 376.338 666.297 386.987C689.959 397.69 702.789 423.383 717.821 444.575C731.221 463.468 739.564 484.817 750.263 505.364C761.112 526.198 780.445 544.207 781.911 567.656C783.38 591.157 766.355 611.464 758.279 633.581C750.643 654.494 747.04 676.807 735.177 695.643C722.96 715.044 708.401 734.315 688.12 744.988C667.966 755.593 642.407 747.237 621.228 755.606C594.874 766.02 577.676 797.474 549.437 799.79C522.83 801.971 495.19 786.91 476.908 767.439C458.383 747.711 459.001 717.04 448.364 692.148C439.785 672.069 430.203 653.018 419.811 633.816C407.251 610.609 382.126 592.41 380.144 566.092C378.22 540.554 395.994 517.58 409.412 495.774C422.308 474.816 436.086 452.788 457.41 440.528C478.418 428.45 505.849 436.608 528.275 427.434C551.176 418.065 565.715 393.467 589.458 386.51Z" fill="#EADC21"/>
</g>
<defs>
<filter id="filter0_f_28_12" x="0" y="0" width="1162" height="1180" filterUnits="userSpaceOnUse" color-interpolation-filters="sRGB">
<feFlood flood-opacity="0" result="BackgroundImageFix"/>
<feBlend mode="normal" in="SourceGraphic" in2="BackgroundImageFix" result="shape"/>
<feGaussianBlur stdDeviation="190" result="effect1_foregroundBlur_28_12"/>
</filter>
</defs>
</svg>
