<svg width="1247" height="1039" viewBox="0 0 1247 1039" fill="none" xmlns="http://www.w3.org/2000/svg">
<g filter="url(#filter0_f_28_14)">
<path fill-rule="evenodd" clip-rule="evenodd" d="M633.747 384.324C663.782 379.498 698.315 377.568 726.833 384.641C755.497 391.752 771.041 408.819 789.25 422.896C805.485 435.446 815.591 449.628 828.552 463.277C841.695 477.117 865.116 489.081 866.892 504.657C868.672 520.268 848.046 533.758 838.263 548.45C829.013 562.342 824.648 577.164 810.277 589.677C795.476 602.565 777.839 615.367 753.269 622.456C728.854 629.501 697.891 623.95 672.234 629.51C640.307 636.427 619.473 657.322 585.263 658.86C553.031 660.309 519.546 650.304 497.398 637.37C474.957 624.265 475.705 603.891 462.819 587.355C452.426 574.017 440.818 561.362 428.228 548.606C413.013 533.191 382.576 521.101 380.174 503.618C377.844 486.654 399.375 471.392 415.631 456.907C431.254 442.985 447.945 428.352 473.778 420.208C499.228 412.184 532.459 417.604 559.627 411.51C587.37 405.286 604.983 388.946 633.747 384.324Z" fill="#63E2CF"/>
</g>
<defs>
<filter id="filter0_f_28_14" x="0" y="0" width="1247" height="1039" filterUnits="userSpaceOnUse" color-interpolation-filters="sRGB">
<feFlood flood-opacity="0" result="BackgroundImageFix"/>
<feBlend mode="normal" in="SourceGraphic" in2="BackgroundImageFix" result="shape"/>
<feGaussianBlur stdDeviation="190" result="effect1_foregroundBlur_28_14"/>
</filter>
</defs>
</svg>
