<svg width="1039" height="1131" viewBox="0 0 1039 1131" fill="none" xmlns="http://www.w3.org/2000/svg">
<g filter="url(#filter0_f_28_13)">
<path fill-rule="evenodd" clip-rule="evenodd" d="M525.37 385.75C542.577 379.332 562.361 376.765 578.699 386.172C595.121 395.627 604.025 418.322 614.458 437.041C623.758 453.73 629.548 472.588 636.973 490.738C644.503 509.142 657.921 525.05 658.938 545.763C659.958 566.522 648.142 584.46 642.537 603.996C637.237 622.47 634.737 642.179 626.504 658.818C618.024 675.956 607.92 692.979 593.844 702.406C579.857 711.774 562.118 704.392 547.419 711.785C529.129 720.984 517.193 748.769 497.594 750.814C479.128 752.741 459.945 739.437 447.257 722.238C434.4 704.811 434.829 677.719 427.447 655.73C421.492 637.994 414.842 621.166 407.63 604.204C398.913 583.705 381.476 567.629 380.1 544.381C378.765 521.823 391.1 501.529 400.413 482.267C409.363 463.754 418.925 444.296 433.725 433.466C448.305 422.797 467.343 430.004 482.907 421.9C498.801 413.624 508.892 391.896 525.37 385.75Z" fill="#44CEFA"/>
</g>
<defs>
<filter id="filter0_f_28_13" x="0" y="0" width="1039" height="1131" filterUnits="userSpaceOnUse" color-interpolation-filters="sRGB">
<feFlood flood-opacity="0" result="BackgroundImageFix"/>
<feBlend mode="normal" in="SourceGraphic" in2="BackgroundImageFix" result="shape"/>
<feGaussianBlur stdDeviation="190" result="effect1_foregroundBlur_28_13"/>
</filter>
</defs>
</svg>
