<svg width="1039" height="1051" viewBox="0 0 1039 1051" fill="none" xmlns="http://www.w3.org/2000/svg">
<g filter="url(#filter0_f_28_10)">
<path fill-rule="evenodd" clip-rule="evenodd" d="M525.37 384.51C542.577 379.476 562.361 377.463 578.699 384.841C595.121 392.257 604.025 410.058 614.458 424.741C623.758 437.831 629.548 452.623 636.973 466.859C644.503 481.294 657.921 493.772 658.938 510.019C659.958 526.301 648.142 540.372 642.537 555.695C637.237 570.185 634.737 585.645 626.504 598.696C618.024 612.138 607.92 625.49 593.844 632.884C579.857 640.232 562.118 634.443 547.419 640.241C529.129 647.457 517.193 669.25 497.594 670.854C479.128 672.366 459.945 661.93 447.257 648.44C434.4 634.771 434.829 613.521 427.447 596.274C421.492 582.362 414.842 569.162 407.63 555.858C398.913 539.779 381.476 527.17 380.1 508.935C378.765 491.241 391.1 475.323 400.413 460.215C409.363 445.694 418.925 430.432 433.725 421.937C448.305 413.569 467.343 419.221 482.907 412.865C498.801 406.374 508.892 389.331 525.37 384.51Z" fill="#D71285"/>
</g>
<defs>
<filter id="filter0_f_28_10" x="0" y="0" width="1039" height="1051" filterUnits="userSpaceOnUse" color-interpolation-filters="sRGB">
<feFlood flood-opacity="0" result="BackgroundImageFix"/>
<feBlend mode="normal" in="SourceGraphic" in2="BackgroundImageFix" result="shape"/>
<feGaussianBlur stdDeviation="190" result="effect1_foregroundBlur_28_10"/>
</filter>
</defs>
</svg>
