<?xml version="1.0" encoding="UTF-8"?><svg id="Layer_1" xmlns="http://www.w3.org/2000/svg" xmlns:xlink="http://www.w3.org/1999/xlink" viewBox="0 0 370 470"><defs><style>.cls-1{opacity:.9;stroke:url(#linear-gradient);stroke-dasharray:0 0 0 0 0 0 0 0 0 0 0 0;stroke-linejoin:round;stroke-width:8px;}.cls-1,.cls-2,.cls-3,.cls-4{fill:none;stroke-linecap:round;}.cls-2{stroke:url(#linear-gradient-2);}.cls-2,.cls-3,.cls-4{stroke-miterlimit:10;}.cls-2,.cls-4{stroke-width:12px;}.cls-3{stroke:#fff;stroke-width:10px;}.cls-4{stroke:url(#linear-gradient-3);}</style><linearGradient id="linear-gradient" x1=".5" y1="181.56" x2="369.5" y2="181.56" gradientUnits="userSpaceOnUse"><stop offset="0" stop-color="#f1ce20"/><stop offset=".25" stop-color="#f4aa3f" stop-opacity=".95"/><stop offset=".37" stop-color="#df735e" stop-opacity=".95"/><stop offset=".5" stop-color="#c83781" stop-opacity=".94"/><stop offset=".67" stop-color="#408bcb" stop-opacity=".91"/><stop offset=".75" stop-color="#00b3ef" stop-opacity=".9"/><stop offset=".87" stop-color="#1cb9df" stop-opacity=".9"/><stop offset="1" stop-color="#3ac1d0" stop-opacity=".9"/></linearGradient><linearGradient id="linear-gradient-2" x1="1.81" y1="223.11" x2="368.19" y2="223.11" xlink:href="#linear-gradient"/><linearGradient id="linear-gradient-3" x1="1.81" y1="135.15" x2="368.19" y2="135.15" xlink:href="#linear-gradient"/></defs><path class="cls-1" d="M4.5,189.83s15.41,2.03,17.63-4.28c1.72-4.88,5.83-8.76,11.09-7.52,1.45,.34,2.73,1.02,3.62,2.07,6.03,7.32-5.82,17.24,.58,24.49,3.66,4.05,11.95,1.83,11.85-3.12-.25-11.52-.7-32.74-.95-44.45-.12-5.67,10.67-6.81,11.67-1.19,3.15,16.68-6.5,73.95,8.89,60.63,.67-.58,1.25-1.75,1.28-2.6,.86-22.78,1.97-46.52,.25-72.37-.68-8.03,13.86-8.48,14.27-.88,0,0-.2,78.98-.2,78.98-.13,7.7,10.97,7.69,10.9,.5,0,0-.6-58.17-.6-58.17-.19-3.41,3.23-5.82,7.52-5.02,7.17,1.33,5.2,10.98,4.73,16.02-.48,5.08-.73,9.25-.65,13.54,.71,10.28,14.69,7.44,11.06-2.92-.81-7.9,.12-17.35,6.72-17.35,7.84,0,7.36,8.16,7.36,10.1,0,4.62,.28,6.22,1.41,8.83,1.43,3.29,4.12,5.32,8.54,2.15,.31-.22,.59-.72,.63-1.08,.83-7.71-.69-15.85-.09-23.73,0-7.4,13.87-7.05,14.32,.33l1.61,37.55c-.54,10.26,8.6,9.31,8.99,5.29,1.48-15.12-.69-37.62-.69-55.15,0-3.19,1.44-6.6,3.85-8.52,5.74-4.57,11.13,.1,11.05,5.18,1.13,1.81-4.14,80.74,1.41,79.55,4.61,3.09,9.31,.01,9.13-3.72l-.7-80.45c-.95-9.25,14.82-10.13,14.76-.87,0,0-.71,71.12-.71,71.12-.11,2.2-.3,5.65,1.93,7,6.13,3.72,8.46-1.94,8.46-6.58,0-22.84-2.55-50.61,.46-70.8,1-6.72,10.13-6.67,10.13,.26,0,13.99-2.78,44.52,1.07,56.09,1.03,3.08,7.82,3.7,10.06,.97,1.51-1.85,.62-13.4,2.26-16.87,1.94-4.53,10.14-7.4,10.55,10.83,2.27,9.57,8.44,7.03,11.52,1.11,3.98-8.43-3.28-22.98,2.03-32.09,2.72-4.31,9.4-3.61,11.33,1.78,0,0-2.14,39.98,2.87,48.54h.45c20.96,19,3.61-61.62,10.82-68.77,3.72-3.25,8.82-.59,8.85,2.42,.2,21.79,.41,43.57,.61,65.36-.07,7.01,12.46,6.99,12.5,.53-.53-17.82-1.06-35.63-1.59-53.45-.39-7.61,13.31-7.85,13.48-.77-.23,11.81-.46,23.61-.69,35.42-.07,3.41,4.15,6.03,8.35,5.02,6.79-2.25,4.41-10.54,5.08-16.26,0-4.12-.55-13.75,4.9-13.75s4.52,7.59,5.2,11.3c-.27,2.47,1.84,4.72,4.3,5.58,2.45,.86,5.16,.65,7.76,.39,2.6-.26,5.29-.54,7.78,.19"/><path class="cls-2" d="M362.19,206.74c0,18.09-14.2,32.75-31.72,32.75H39.53c-17.52,0-31.72-14.66-31.72-32.75"/><path class="cls-4" d="M7.81,151.52c0-18.09,14.2-32.75,31.72-32.75H330.47c17.52,0,31.72,14.66,31.72,32.75"/><path class="cls-3" d="M31,102.08C61.96,50.73,124.13,9.93,186.28,9.32c62.15-.61,120.66,39.84,152.72,90.58"/><g><g><path class="cls-3" d="M349.75,278.93c-77.93,253.99-262.96,230.4-329.5,0"/><path class="cls-3" d="M20.25,258.68v20.24"/></g><path class="cls-3" d="M349.5,256.18s.18,15.93,.18,22.99"/></g></svg>