<?xml version="1.0" encoding="UTF-8"?><svg id="Artboard_2" xmlns="http://www.w3.org/2000/svg" xmlns:xlink="http://www.w3.org/1999/xlink" viewBox="0 0 841.89 1190.55"><defs><style>.cls-1{letter-spacing:0em;}.cls-2{fill:#f5f3ee;}.cls-3{fill:#c7b391;}.cls-4{font-family:Karla-Bold, Karla;font-weight:700;}.cls-5{letter-spacing:-.03em;}.cls-5,.cls-6{font-family:Karla-Regular, Karla;}.cls-7{fill:#cb866b;}.cls-7,.cls-8{fill-rule:evenodd;}.cls-8{fill:#c67b5c;}.cls-9{letter-spacing:-.02em;}.cls-10{font-family:PlusJakartaSans-Regular, 'Plus Jakarta Sans';font-size:50px;}.cls-10,.cls-11{fill:#0e111d;}.cls-11{font-size:30px;}</style></defs><rect class="cls-2" x=".4" y=".07" width="841.1" height="1190.41"/><path class="cls-8" d="m451.95,52.55c-3.24-22.95-17.51-38.91-36.39-52.22H.37v366.09c23.84,21.82,49.02,40.51,80.56,46.3,62.34,11.43,131.57-6.78,181.03-46.43,48.02-38.49,48.21-110.24,80.09-162.89,32.78-54.14,118.75-88.17,109.9-150.85Z"/><path class="cls-7" d="m406.58,65.97c-4.61-32.58-34.68-49.02-66.18-65.63H.37v328.87c24.36,23.42,49.22,45.22,81.88,51.21,54.49,9.98,115.01-5.92,158.24-40.54,41.97-33.6,42.14-96.25,70.01-142.21,28.66-47.27,103.8-76.98,96.06-131.7Z"/><path class="cls-8" d="m842.08,340.21c-7.3.09-14.51-.28-21.57-1.34-67.19-10.09-129.29-63.47-194.98-46.11-67.12,17.74-141.02,69.05-151.51,137.68-11.47,74.95,83.92,125.93,99.85,200.07,11.23,52.27-43.02,106.19-23.37,155.91,19.64,49.69,81,65.46,123.62,97.68,48.96,37.01,86.03,95.34,146.39,106.4,7.11,1.3,14.32,2.2,21.57,2.75V340.21Z"/><path class="cls-7" d="m842.67,389.25c-7.15.19-14.21-.1-21.1-1.13-58.78-8.82-113.11-55.52-170.58-40.34-58.72,15.52-123.37,60.41-132.55,120.45-10.03,65.57,73.42,110.17,87.35,175.03,9.82,45.73-37.64,92.9-20.44,136.39,17.18,43.47,70.86,57.27,108.15,85.45,42.83,32.37,75.26,83.41,128.07,93.09,6.95,1.27,14,2.12,21.1,2.57V389.25Z"/><path class="cls-8" d="m397.34,1004.41c-9.33-66.2-109.99-74.33-149.3-128.34-33.23-45.65-12.47-122.69-57.83-156.25-44.77-33.12-108.86.5-163.89-7.78-8.91-1.34-17.73-3.45-26.48-6.05v484.9h270.95c4.64-12.3,9.95-24.25,16.65-35.35,32.78-54.25,118.75-88.34,109.9-151.14Z"/><path class="cls-7" d="m237.33,1190.92c5.06-14.85,10.76-29.4,18.73-42.58,28.61-47.34,103.63-77.09,95.91-131.9-8.15-57.78-95.99-64.86-130.29-112-29-39.84-10.89-107.07-50.47-136.36-39.07-28.9-95.01.44-143.03-6.79-9.39-1.41-18.67-3.8-27.87-6.75v436.38h237.03Z"/><text class="cls-10" transform="translate(93.47 85.85)"><tspan x="0" y="0">Hoe kunnen </tspan><tspan class="cls-1" x="290.05" y="0">w</tspan><tspan x="329.4" y="0">e de jongeren </tspan><tspan class="cls-1" x="-49.75" y="60">w</tspan><tspan x="-10.4" y="60">eer in</tspan><tspan class="cls-9" x="116.6" y="60">t</tspan><tspan x="135" y="60">eresseren in de politiek?</tspan></text><text class="cls-11" transform="translate(328.24 258.69)"><tspan class="cls-6"><tspan x="0" y="0">Een manier om met anderen te </tspan></tspan><tspan class="cls-4" x="0" y="36">connecteren </tspan><tspan class="cls-6" x="183.72" y="36">die hetzelfde </tspan><tspan class="cls-6"><tspan x="0" y="72">denken of juist helemaal niet.</tspan></tspan></text><text class="cls-11" transform="translate(19.47 798.82)"><tspan class="cls-5" x="0" y="0">W</tspan><tspan class="cls-6" x="25.86" y="0">aar de </tspan><tspan class="cls-4" x="117.16" y="0">informatie </tspan><tspan class="cls-6" x="276.65" y="0">gemakkelijk te </tspan><tspan class="cls-6"><tspan x="10.04" y="36">vinden is en waar men probeert de </tspan></tspan><tspan class="cls-4" x="39.48" y="72">onduidelijkheden </tspan><tspan class="cls-6" x="298.5" y="72">te verkleinen.</tspan></text><path class="cls-2" d="m150,952.34c3.22,0,3.22-5,0-5s-3.22,5,0,5h0Z"/><path class="cls-2" d="m172.68,937.05c3.22,0,3.22-5,0-5s-3.22,5,0,5h0Z"/><path class="cls-3" d="m288.2,750.85c3.22,0,3.22-5,0-5s-3.22,5,0,5h0Z"/><path class="cls-2" d="m121.41,916.8c-2.32-1.79-2.77-5.54-1.62-8.14s4.2-3.77,6.83-3.23c3.54.73,5.49,3.28,5.64,7.02.1,2.47-.3,4.93-.49,7.39s-.09,4.78.4,7.15c1.04,4.99,3.89,9.66,7.83,12.88,1.05.85,2.51,1.02,3.54,0,.88-.88,1.05-2.68,0-3.54-3.72-3.04-6.38-7.48-6.8-12.33-.5-5.67,1.75-11.45-.62-16.92-1.82-4.2-6.16-6.68-10.66-6.77s-8.79,2.64-10.49,7.01c-1.92,4.94-.22,10.6,3.91,13.78,1.07.82,2.8.16,3.42-.9.75-1.29.18-2.59-.9-3.42h0Z"/><path class="cls-2" d="m142.38,899.96c6.77,8.16,13.55,16.31,20.32,24.47.86,1.04,2.64.89,3.54,0,1.03-1.03.87-2.49,0-3.54-6.77-8.16-13.55-16.31-20.32-24.47-.86-1.04-2.64-.89-3.54,0-1.03,1.03-.87,2.49,0,3.54h0Z"/><path class="cls-3" d="m289.07,708.06c1.37-3.13,4.76-4.88,8.02-3.4s4.08,5.56,3.3,8.86c-.99,4.15-3.97,7.46-6.65,10.63-3.02,3.57-5.95,7.29-7.23,11.87-.87,3.1,3.95,4.43,4.82,1.33,1.08-3.86,3.68-6.98,6.22-9.99,2.75-3.25,5.47-6.54,7.04-10.54,1.41-3.62,1.52-7.83-.09-11.4s-5.36-6.01-9.34-6.28c-4.33-.3-8.67,2.44-10.4,6.39-.54,1.24-.36,2.68.9,3.42,1.06.62,2.88.35,3.42-.9h0Z"/><path class="cls-3" d="m317.29,706.07c-1.56,11.59-2.89,23.22-3.97,34.87-.12,1.35,1.24,2.5,2.5,2.5,1.46,0,2.38-1.15,2.5-2.5,1.03-11.2,2.28-22.39,3.79-33.54.18-1.34-.32-2.68-1.75-3.08-1.16-.32-2.89.4-3.08,1.75h0Z"/><path class="cls-3" d="m316.15,754.54c3.22,0,3.22-5,0-5s-3.22,5,0,5h0Z"/><path class="cls-2" d="m611.49,426.53c4.61,6.82,3.42,16.53-2.73,22.01-1.51,1.35-.4,4.53,1.77,4.27,12.25-1.47,22.94-10.48,26.06-22.51l-2.41,1.84c11.72.54,23.56-.93,34.79-4.33,5.23-1.59,10.41-3.55,15.27-6.05,4.45-2.28,8.76-5.22,11.91-9.15,5.84-7.27,6.8-16.86,3.64-25.51s-9.81-16.02-18.28-20.14c-9.59-4.66-20.42-5.81-30.96-5.51-11.75.33-23.55,2.07-35,4.67-5.79,1.31-11.52,2.89-17.16,4.73-5.29,1.72-10.56,3.6-15.55,6.08-9.34,4.65-17.95,12.36-20.15,22.98-1.03,4.97-.46,10,1.75,14.57,2.06,4.27,5.5,7.77,9.38,10.43,9.25,6.34,20.87,6.85,31.67,5.75,2.98-.3,5.94-.71,8.9-1.13,1.34-.19,2.07-1.89,1.75-3.08-.4-1.44-1.73-1.94-3.08-1.75-10.28,1.45-21.66,2.95-31.52-1.24-7.18-3.05-13.92-9.41-14.36-17.63-.51-9.6,6.34-17.62,14.09-22.35,4.2-2.56,8.75-4.45,13.37-6.1,5.19-1.85,10.46-3.48,15.78-4.88,10.81-2.84,21.86-4.76,33-5.67,9.69-.79,19.67-.82,29.07,1.95,8.31,2.45,15.66,7.21,20.14,14.76,3.77,6.35,5.53,14.57,2.39,21.51-3.81,8.44-13.09,12.77-21.28,15.85-10.08,3.78-20.75,5.94-31.51,6.29-2.69.09-5.38.06-8.06-.06-1.07-.05-2.15.81-2.41,1.84-2.51,9.69-11.2,17.63-21.23,18.84l1.77,4.27c7.72-6.88,9.31-19.5,3.52-28.07-1.79-2.65-6.13-.15-4.32,2.52h0Z"/><path class="cls-2" d="m580.79,391.65c-1.98,4.55-3.96,9.11-5.94,13.66-1.01,2.31-2.18,4.62-3.01,6.99-.76,2.16-.12,4.92,2.31,5.64,2.24.67,4.29-.8,5.6-2.5,1.54-1.99,3.01-4.04,4.51-6.06,3.02-4.07,6.05-8.14,9.07-12.21,3.37-4.54,6.74-9.08,10.12-13.61l-4.32-2.52c-6.13,11.79-12.26,23.57-18.39,35.36-.81,1.56.16,3.91,2.16,3.76,4.34-.32,6.84-3.97,9.21-7.19,2.19-2.98,4.19-6.1,6.15-9.24,3.86-6.19,7.54-12.59,12.38-18.07,2.65-3,5.61-5.68,9.02-7.79l-3.42-3.42c-7.94,14.3-15.87,28.61-23.81,42.91-.65,1.18-.29,2.73.9,3.42,1.27.74,2.62.19,3.42-.9,10.25-13.96,21.28-27.33,33.01-40.08l-3.93-3.03c-8.07,13.7-16.15,27.4-24.22,41.1-.69,1.16-.27,2.74.9,3.42,1.29.75,2.6.18,3.42-.9,11.05-14.41,22.22-28.87,35.76-41.06l-3.93-3.03c-8.87,14.18-17.75,28.35-26.62,42.53-1.48,2.36,2.05,5.21,3.93,3.03,12.28-14.33,24.56-28.65,36.84-42.98l-3.93-3.03c-7.98,13.09-15.97,26.18-23.95,39.27-1.45,2.37,2.04,5.22,3.93,3.03,9.52-11.04,19.03-22.08,28.55-33.12l-3.93-3.03c-6.12,10.94-12.24,21.88-18.36,32.82-1.6,2.85,2.48,5.12,4.32,2.52,9.35-13.23,20.67-25.02,33.42-35.01l-3.93-3.03c-10.32,14.1-20.18,28.54-29.54,43.29-1.73,2.73,2.59,5.23,4.32,2.52,9.55-14.89,21.55-28.1,35.41-39.1l-3.93-3.03c-7.72,11.52-15.44,23.05-23.15,34.57-1.57,2.35,2.02,5.13,3.93,3.03,9.57-10.56,20.36-19.98,32.16-27.99l-3.67-2.82c-3.45,8.78-7.75,17.21-12.76,25.2-1.35,2.16,1.3,4.64,3.42,3.42,4.22-2.43,7.97-5.64,10.98-9.47.83-1.06,1.04-2.5,0-3.54-.87-.87-2.7-1.07-3.54,0-2.76,3.53-6.08,6.46-9.96,8.69l3.42,3.42c5.24-8.37,9.65-17.21,13.27-26.39.79-2.01-1.94-4-3.67-2.82-12.15,8.24-23.31,17.89-33.17,28.77l3.93,3.03c7.72-11.52,15.44-23.05,23.15-34.57.69-1.02.3-2.52-.64-3.23-1.07-.8-2.28-.6-3.28.2-14.18,11.26-26.42,24.87-36.19,40.11l4.32,2.52c9.36-14.75,19.22-29.19,29.54-43.29.73-.99.26-2.55-.64-3.23-1.08-.8-2.27-.6-3.28.2-13.1,10.26-24.59,22.43-34.2,36.02l4.32,2.52c6.12-10.94,12.24-21.88,18.36-32.82,1.34-2.39-2.01-5.25-3.93-3.03-9.52,11.04-19.03,22.08-28.55,33.12l3.93,3.03c7.98-13.09,15.97-26.18,23.95-39.27,1.45-2.37-2.05-5.22-3.93-3.03-12.28,14.33-24.56,28.65-36.84,42.98l3.93,3.03c8.87-14.18,17.75-28.35,26.62-42.53,1.56-2.49-1.88-4.87-3.93-3.03-13.86,12.48-25.23,27.32-36.54,42.07l4.32,2.52c8.07-13.7,16.15-27.4,24.22-41.1,1.42-2.4-1.97-5.15-3.93-3.03-12.02,13.06-23.29,26.78-33.79,41.09l4.32,2.52c7.94-14.3,15.87-28.61,23.81-42.91,1.18-2.13-1.24-4.77-3.42-3.42-12.56,7.78-18.9,21.53-26.87,33.37-1.1,1.63-2.23,3.25-3.44,4.81-.91,1.18-2.27,3.31-3.93,3.43l2.16,3.76c6.13-11.79,12.26-23.57,18.39-35.36,1.52-2.92-2.43-5.07-4.32-2.52-5.06,6.81-10.12,13.61-15.17,20.42-2.53,3.4-5.06,6.81-7.59,10.21-.23.31-.44.62-.7.91-.14.16-.53.39-.62.56-.2.37-.04-.14.19,0,0,0,1.25,1.01,1.25,1.01.12-.07.23-.68.29-.84.81-1.99,1.72-3.95,2.57-5.92,1.91-4.4,3.83-8.8,5.74-13.21.54-1.24.36-2.68-.9-3.42-1.06-.62-2.88-.35-3.42.9h0Z"/><path class="cls-3" d="m779.38,235.93c8.6,10.96,22.02,17.68,35.89,18.31,1.88.09,3.13-2.19,2.16-3.76-5.42-8.73-12.39-16.29-20.56-22.5l-1.26,4.66c8.34,1.08,17.27,1.26,24.97-2.64,6.42-3.25,11.51-9.46,12.16-16.76s-4.28-14.6-10.36-18.66c-7.04-4.71-15.81-5.91-24.02-6.99-8.83-1.16-17.76-1.75-26.66-1.38s-17.41,1.47-25.61,4.13c-7,2.27-13.53,6.33-16.21,13.51-2.28,6.11-.96,13.1,2.02,18.72,7.48,14.12,24.36,17.08,38.96,16.34,1.95-.1,3.89-.26,5.83-.44,1.34-.13,2.5-1.06,2.5-2.5,0-1.25-1.15-2.63-2.5-2.5-12.73,1.23-28.72,1.42-37.75-9.31-3.48-4.13-5.55-9.65-5.14-15.02.44-5.84,4.64-10.08,9.86-12.53,3.1-1.45,6.48-2.31,9.81-3.06,3.92-.88,7.89-1.51,11.89-1.9,8.16-.79,16.38-.68,24.54.02,7.62.65,15.55,1.44,22.85,3.84,6.08,2,12.21,6.01,14.34,12.37,2,5.98-.77,11.84-5.52,15.61-5.62,4.46-13.15,5.15-20.06,4.74-1.97-.12-3.93-.33-5.88-.58-1.07-.14-2.15.87-2.41,1.84-.32,1.15.25,2.14,1.15,2.82,7.47,5.66,13.83,12.75,18.77,20.7l2.16-3.76c-12.65-.58-24.57-6.91-32.36-16.85-.83-1.06-2.66-.87-3.54,0-1.05,1.05-.84,2.47,0,3.54h0Z"/><path class="cls-3" d="m747.3,199.73c-3.72,3.49-6.97,7.46-9.7,11.77-.66,1.04-.32,2.51.64,3.23,1.07.8,2.28.61,3.28-.2,9.38-7.53,18.77-15.06,28.15-22.6l-3.93-3.03c-5.82,9.96-13.29,18.76-20.77,27.5-.81.94-1.01,2.26-.2,3.28.7.88,2.22,1.41,3.23.64,11.68-8.92,23.36-17.84,35.05-26.77l-3.67-2.82c-.92,3.53-3.38,6.26-5.79,8.88-3.01,3.26-6.04,6.51-9.06,9.77-6.08,6.55-12.16,13.11-18.23,19.66-1.9,2.05.51,5.39,3.03,3.93,12.13-7.07,20.85-18.37,32.22-26.42,3.07-2.17,6.35-4.13,9.85-5.54l-2.43-4.18c-8.92,9.22-17.83,18.43-26.75,27.65-2.26,2.34,1.13,5.63,3.54,3.54,11.19-9.75,23.1-18.64,35.61-26.62l-3.76-2.16c.36,3.2-3.13,5.81-5.12,7.87-2.72,2.82-5.47,5.6-8.26,8.34-5.63,5.55-11.4,10.95-17.3,16.21l3.54,3.54c13.01-11.98,27.02-22.83,41.88-32.42l-3.03-3.93c-8.45,10.28-17.94,19.63-27.43,28.94-2.3,2.26,1.2,5.75,3.54,3.54,9.96-9.47,20.79-17.95,32.38-25.35l-3.03-3.93c-11.07,10.99-22.6,21.5-34.57,31.5l3.93,3.03c3.46-4.83,7.85-8.95,12.84-12.15l-3.03-3.93c-4.06,4.07-8.13,8.15-12.19,12.22-.78.78-.95,2.07-.39,3.03.6,1.03,1.71,1.31,2.82,1.15,3-.45,5.99-.9,8.99-1.34l-3.08-1.75c.31,1.36.26,2.69-.1,4.03-.82,3.11,4,4.44,4.82,1.33.59-2.23.61-4.45.1-6.69-.32-1.43-1.79-1.94-3.08-1.75-3,.45-5.99.9-8.99,1.34l2.43,4.18c4.06-4.07,8.13-8.15,12.19-12.22,1.97-1.97-.59-5.49-3.03-3.93-5.75,3.68-10.66,8.39-14.64,13.94-.72,1-.27,2.54.64,3.23,1.05.79,2.3.63,3.28-.2,11.97-10,23.5-20.51,34.57-31.5,1.98-1.97-.59-5.48-3.03-3.93-11.93,7.62-23.13,16.38-33.39,26.13l3.54,3.54c9.49-9.31,18.98-18.66,27.43-28.94.79-.96,1.02-2.25.2-3.28-.74-.93-2.16-1.33-3.23-.64-15.21,9.82-29.57,20.94-42.89,33.2-2.38,2.19,1.14,5.67,3.54,3.54,6.26-5.58,12.37-11.32,18.32-17.22,2.95-2.92,5.86-5.89,8.73-8.89,2.55-2.67,5.55-5.84,5.09-9.85-.2-1.76-2.01-3.28-3.76-2.16-12.87,8.2-25.12,17.38-36.62,27.4l3.54,3.54c8.92-9.22,17.83-18.43,26.75-27.65,1.6-1.66.01-5.16-2.43-4.18-13.47,5.42-22.89,16.6-33.78,25.71-2.98,2.5-6.12,4.8-9.49,6.76l3.03,3.93c6.3-6.8,12.61-13.59,18.91-20.39,3.08-3.32,6.19-6.61,9.23-9.96,2.7-2.98,5.2-6.21,6.23-10.16.5-1.91-1.84-4.22-3.67-2.82-11.68,8.92-23.36,17.84-35.05,26.77l3.03,3.93c7.74-9.06,15.52-18.19,21.55-28.52.62-1.07.34-2.49-.64-3.23-1.07-.8-2.28-.61-3.28.2-9.38,7.53-18.77,15.06-28.15,22.6l3.93,3.03c2.51-3.97,5.5-7.55,8.92-10.76,2.35-2.21-1.19-5.74-3.54-3.54h0Z"/><path class="cls-3" d="m473.74,365.51c11.41,9.31,18.76,23.22,19.72,37.95.09,1.35,1.09,2.5,2.5,2.5,1.29,0,2.59-1.15,2.5-2.5-1.04-15.99-8.75-31.33-21.19-41.48-1.04-.85-2.51-1.02-3.54,0-.88.88-1.05,2.68,0,3.54h0Z"/><path class="cls-3" d="m488.92,451.49c-3.5,12.92-10.29,24.77-19.68,34.3-2.26,2.29,1.27,5.83,3.54,3.54,9.98-10.13,17.25-22.78,20.97-36.51.84-3.11-3.98-4.44-4.82-1.33h0Z"/><path class="cls-3" d="m429.3,538.47c-11.2,8.76-20.21,20.29-26.01,33.27-.55,1.23-.36,2.69.9,3.42,1.07.62,2.87.34,3.42-.9,5.65-12.66,14.3-23.72,25.22-32.26,1.06-.83.87-2.66,0-3.54-1.05-1.05-2.47-.83-3.54,0h0Z"/><path class="cls-3" d="m385.74,631.9c-3.43,15.29-2.97,31.32,1.44,46.36.9,3.08,5.73,1.77,4.82-1.33-4.15-14.18-4.68-29.28-1.44-43.7.7-3.13-4.12-4.47-4.82-1.33h0Z"/><path class="cls-3" d="m410.46,710.93c12.15,8.22,26.1,13.36,40.63,15.24,1.34.17,2.5-1.27,2.5-2.5,0-1.5-1.15-2.33-2.5-2.5-13.63-1.77-26.74-6.87-38.11-14.56-2.67-1.81-5.18,2.52-2.52,4.32h0Z"/><path class="cls-3" d="m344.73,176.35c4.73,4.37,9.47,8.73,14.2,13.1.96.89,2.6,1.02,3.54,0,.89-.96,1.03-2.59,0-3.54-4.73-4.37-9.47-8.73-14.2-13.1-.96-.89-2.6-1.02-3.54,0-.89.96-1.03,2.59,0,3.54h0Z"/><path class="cls-3" d="m391.21,214.14c5.45,6.39,11.38,12.36,17.73,17.86,1.02.88,2.53,1,3.54,0,.9-.9,1.03-2.65,0-3.54-6.35-5.5-12.28-11.47-17.73-17.86-.88-1.03-2.63-.9-3.54,0-1.02,1.02-.88,2.51,0,3.54h0Z"/><path class="cls-3" d="m491.03,1002.48c-11.63,11.54-26.86,18.98-43.08,21.22-1.34.19-2.07,1.9-1.75,3.08.4,1.44,1.73,1.93,3.08,1.75,17.02-2.36,33.1-10.42,45.28-22.51,2.29-2.27-1.25-5.81-3.54-3.54h0Z"/><path class="cls-3" d="m389.89,1029.07c-16.75,3.11-34.15,2.83-50.8-.79-4.75-1.03-9.43-2.34-14.03-3.89-3.06-1.03-4.37,3.8-1.33,4.82,16.78,5.66,34.73,7.94,52.39,6.65,5.06-.37,10.11-1.04,15.1-1.96,1.33-.25,2.08-1.85,1.75-3.08-.38-1.39-1.74-1.99-3.08-1.75h0Z"/><path class="cls-3" d="m276.66,1018.52c-13.94-5.9-29.17-7.84-44.14-5.65-4.21.61-8.36,1.58-12.41,2.87-3.06.97-1.75,5.8,1.33,4.82,17.12-5.44,36.12-4.74,52.7,2.28,1.24.53,2.68.37,3.42-.9.61-1.05.35-2.89-.9-3.42h0Z"/><path class="cls-3" d="m178.99,1079.72c-9.4,9.36-13.22,23.37-10.69,36.29.72,3.67,2.02,7.22,3.78,10.51,1.52,2.84,5.84.32,4.32-2.52-6.99-13.04-4.34-30.32,6.13-40.74,2.28-2.27-1.25-5.81-3.54-3.54h0Z"/><path class="cls-3" d="m204.62,1163.95c8.7,8.71,17.39,17.42,26.09,26.13,2.28,2.28,5.81-1.25,3.54-3.54-8.7-8.71-17.39-17.42-26.09-26.13-2.28-2.28-5.81,1.25-3.54,3.54h0Z"/><image width="1570" height="2932" transform="translate(60.43 158.6) scale(.17)" xlink:href="pictures/friends/NL/friendsNL_iphone13starlight_portrait.png"/><image width="1570" height="2932" transform="translate(493.35 542.34) scale(.17)" xlink:href="pictures/voting/NL/votingNL_iphone13starlight_portrait.png"/><image width="1570" height="2932" transform="translate(558.05 679.75) scale(.17)" xlink:href="pictures/test/NL/testNL_iphone13starlight_portrait.png"/></svg>