<?xml version="1.0" encoding="UTF-8"?><svg id="Artboard_3" xmlns="http://www.w3.org/2000/svg" xmlns:xlink="http://www.w3.org/1999/xlink" viewBox="0 0 841.89 1190.55"><defs><style>.cls-1{fill:#75abbf;}.cls-1,.cls-2{fill-rule:evenodd;}.cls-3,.cls-4{font-family:PlusJakartaSans-Regular, 'Plus Jakarta Sans';}.cls-5,.cls-6,.cls-7{fill:#0e111d;}.cls-8,.cls-2{fill:#497f87;}.cls-4,.cls-9{letter-spacing:0em;}.cls-10,.cls-11{letter-spacing:0em;}.cls-12{letter-spacing:-.01em;}.cls-12,.cls-13,.cls-14,.cls-11,.cls-9,.cls-15,.cls-16{font-weight:700;}.cls-12,.cls-13,.cls-14,.cls-11,.cls-9,.cls-16{font-family:PlusJakartaSans-Bold, 'Plus Jakarta Sans';}.cls-17{fill:#f5f3ee;}.cls-18{fill:#93b3b8;}.cls-19{stroke:#ed1c24;}.cls-19,.cls-20,.cls-21,.cls-22{stroke-miterlimit:10;}.cls-19,.cls-21,.cls-22{fill:none;stroke-linecap:round;stroke-width:6px;}.cls-6{font-size:35px;}.cls-13{letter-spacing:0em;}.cls-23{fill:#ed1c24;}.cls-20{fill:#fff;stroke:#fff;}.cls-21{stroke:#ffde17;}.cls-15{fill:#231f20;font-family:Karla-Bold, Karla;font-size:23.47px;}.cls-22{stroke:#231f20;}.cls-16{letter-spacing:0em;}.cls-7{font-size:50px;}.cls-24{fill:#ffde17;}</style></defs><rect class="cls-17" x=".4" y=".07" width="841.1" height="1190.41"/><path class="cls-2" d="m450.98,51.78c-3.24-22.95-17.51-38.91-36.39-52.22H-.59v366.09c23.84,21.82,49.02,40.51,80.56,46.3,62.34,11.43,131.57-6.78,181.03-46.43,48.02-38.49,48.21-110.24,80.09-162.89,32.78-54.14,118.75-88.17,109.9-150.85Z"/><path class="cls-1" d="m405.61,65.2c-4.61-32.58-34.68-49.02-66.18-65.63H-.59v328.87c24.36,23.42,49.22,45.22,81.88,51.21,54.49,9.98,115.01-5.92,158.24-40.54,41.97-33.6,42.14-96.25,70.01-142.21,28.66-47.27,103.8-76.98,96.06-131.7Z"/><path class="cls-2" d="m842.11,340.44c-7.3.09-14.51-.28-21.57-1.34-67.19-10.09-129.29-63.47-194.98-46.11-67.12,17.74-141.02,69.05-151.51,137.68-11.47,74.95,83.92,125.93,99.85,200.07,11.23,52.27-43.02,106.19-23.37,155.91,19.64,49.69,81,65.46,123.62,97.68,48.96,37.01,86.03,95.34,146.39,106.4,7.11,1.3,14.32,2.2,21.57,2.75V340.44Z"/><path class="cls-1" d="m842.7,389.48c-7.15.19-14.21-.1-21.1-1.13-58.78-8.82-113.11-55.52-170.58-40.34-58.72,15.52-123.37,60.41-132.55,120.45-10.03,65.57,73.42,110.17,87.35,175.03,9.82,45.73-37.64,92.9-20.44,136.39,17.18,43.47,70.86,57.27,108.15,85.45,42.83,32.37,75.26,83.41,128.07,93.09,6.95,1.27,14,2.12,21.1,2.57V389.48Z"/><path class="cls-2" d="m397.38,1004.64c-9.33-66.2-109.99-74.33-149.3-128.34-33.23-45.65-12.47-122.69-57.83-156.25-44.77-33.12-108.86.5-163.89-7.78-8.91-1.34-17.73-3.45-26.48-6.05v484.9h270.95c4.64-12.3,9.95-24.25,16.65-35.35,32.78-54.25,118.75-88.34,109.9-151.14Z"/><path class="cls-1" d="m237.37,1191.14c5.06-14.85,10.76-29.4,18.73-42.58,28.61-47.34,103.63-77.09,95.91-131.9-8.15-57.78-95.99-64.86-130.29-112-29-39.84-10.89-107.07-50.47-136.36-39.07-28.9-95.01.44-143.03-6.79-9.39-1.41-18.67-3.8-27.87-6.75v436.38h237.03Z"/><path class="cls-22" d="m668.64,35.55c-4.01,5.85-6.63,12.64-7.6,19.66-.28,2-.31,4.34,1.19,5.7,1.32,1.2,3.35,1.16,5.07.74,4.92-1.22,8.81-4.86,12.54-8.3,6.02-5.55,12.23-10.89,18.61-16.02,4.45-3.58,9.06-7.09,14.34-9.28.97-.4,2.04-.76,3.04-.45,1.36.43,2.09,2.01,1.99,3.43s-.84,2.72-1.58,3.93c-9.37,15.23-23.74,27.33-30.71,43.8-1.26,2.97-2.54,5.91-1.68,9.02"/><path class="cls-21" d="m683.99,88.29c.26.96.73,1.91,1.55,2.48,1.21.84,2.85.65,4.27.27,4.18-1.1,7.92-3.43,11.45-5.92,12.32-8.69,22.83-19.7,34.83-28.83,4.28-3.25,8.87-6.32,14.09-7.58.75-.18,1.55-.32,2.27-.04,1.15.44,1.69,1.83,1.54,3.05s-.83,2.3-1.51,3.32c-10.7,15.97-26.14,28.37-36.52,44.55-3.73,5.81-6.84,12.37-6.68,19.27.04,1.95.57,4.2,2.33,5.02,1.02.48,2.23.34,3.31.02"/><path class="cls-19" d="m715.48,123.73c2.63-.78,4.84-2.52,6.96-4.26,14.41-11.87,27.45-25.38,42.27-36.74,2.93-2.24,6.02-4.45,9.61-5.32.87-.21,1.82-.34,2.65,0,2.19.9,2.06,4.06,1.21,6.27-2.92,7.66-9.45,13.24-14.39,19.78-6.32,8.37-10.11,18.62-10.77,29.08-.23,3.71.15,7.93,3.03,10.27,3.89,3.14,9.61,1,14.08-1.23"/><text class="cls-15" transform="translate(650.04 175.48)"><tspan x="0" y="0">B</tspan><tspan x="15.21" y="0">ES</tspan><tspan x="43.93" y="0">implified</tspan></text><text class="cls-7" transform="translate(119.58 460.09)"><tspan class="cls-3"><tspan x="0" y="0">Let’s ma</tspan><tspan class="cls-10" x="198.15" y="0">k</tspan><tspan x="225.05" y="0">e Belgian politics</tspan></tspan><tspan class="cls-11" x="121.17" y="60">y</tspan><tspan class="cls-14" x="149.97" y="60">outh</tspan><tspan class="cls-3" x="262.52" y="60">able again</tspan></text><path class="cls-5" d="m364.38,573.84c2.16,3.34,5.42,6.95,9.84,5.89,3.79-.91,5.75-5.31,5.42-8.92-.36-3.82-2.66-7.96-6.68-8.85-2.4-.54-4.82.13-6.91,1.35-1.8,1.05-3.51,2.51-4.51,4.36-1.84,3.42-.93,7.63,1.77,10.33s6.75,3.34,9.96,1.31c3.14-1.99,4.94-5.8,4.22-9.47-.42-2.14-1.91-4.18-4.01-4.91-2.39-.83-4.67.5-5.91,2.52-1.05,1.72-1.85,4.12-1.65,6.14.23,2.33,1.7,4.09,3.91,4.83,4,1.35,8-1.64,8.66-5.6s-1.07-8.99-5.27-10.37-7.76,2.21-9.49,5.6c-1.16,2.27-1.94,4.75-.8,7.19.87,1.86,2.61,3.15,4.48,3.87,3.28,1.25,7.31.36,9.81-2.07,2.76-2.69,3.04-6.83,1.49-10.2s-5.29-5.46-9.09-4.86c-3.5.55-6.75,3.43-7.46,6.94-.83,4.1,1.73,8.14,5.61,9.53,4.47,1.6,8.67-1.95,10.28-5.89s.34-8.76-3.43-11.01c-3.97-2.37-8.56-.37-11.41,2.77-1.45,1.6-2.85,3.56-3.34,5.7s-.07,4.4,1.36,6.19c2.16,2.71,6.17,3.59,9.43,2.79,3.75-.91,7.17-4.18,7.93-8.01s-1.05-8.31-4.74-10.1c-3.88-1.89-8.33-.34-11,2.86-2.42,2.9-4.03,7.18-2.6,10.9.8,2.08,2.5,3.72,4.74,4.16s4.45-.07,6.48-1.01c3.45-1.59,6.23-5,6.28-8.91s-2.81-7.89-6.95-8.38c-4.11-.49-8,2.68-9.7,6.22-1.67,3.46-1.98,7.86.73,10.9,3.04,3.41,8.52,2.71,11.52-.31,3.05-3.07,4.13-8.11,2.31-12.06-1.67-3.63-6.65-5.67-10.14-3.25-1.8,1.25-2.81,3.31-3.66,5.27-.96,2.21-1.62,4.67-.85,7.04,1.3,3.97,5.61,5.58,9.47,4.93,3.72-.63,6.99-3.93,7.68-7.63.77-4.09-1.43-7.8-5.3-9.23-1.57-.58-3.48-.66-5.05-.03-2.07.83-3.45,2.47-4.47,4.41-1.72,3.28-2.35,7.85,1.22,10.15,1.1.71,2.81.26,3.42-.9.66-1.24.28-2.66-.9-3.42-.39-.25,0,0,.06.06-.09-.1-.26-.44-.15-.15s.02-.02-.04-.12c-.16-.28.11.56.03.02-.02-.11-.05-.25-.08-.35.02.09.02.56.03.11,0-.33,0-.65.04-.97-.06.57.05-.15.1-.33.07-.27.15-.53.24-.79,0,0,.24-.63.09-.27-.13.3.04-.09.08-.16.17-.35.35-.69.55-1.02.08-.14.17-.28.26-.42.03-.04.31-.47.16-.25-.18.25.31-.35.27-.32.11-.12.23-.23.35-.34-.25.24.23-.14.35-.21.36-.23,0,0-.1.03.17-.06.34-.1.51-.16.46-.15-.11-.02-.14,0,.07-.03.27-.02.36-.03.12,0,.24,0,.36,0,.06,0,.62.09.21,0-.37-.07.03.01.12.04.15.04.3.07.44.12.12.04.23.08.35.12-.29-.1-.27-.14,0,.01.25.14.48.28.72.43.14.09.26.29-.06-.05.08.09.19.17.28.25.14.14.55.63.22.19.18.25.34.51.48.79.21.39-.01,0-.04-.08.04.15.1.3.14.46.02.08.12.52.05.19s0,.11,0,.19c.02.32,0,.63-.03.94.01-.11.1-.5-.01-.04-.05.21-.1.41-.16.61-.04.14-.09.27-.14.4.03-.1.21-.43,0-.01-.13.25-.27.51-.42.75-.08.12-.16.24-.24.36.28-.4,0-.01-.08.08-.24.27-.52.5-.77.76s.3-.19,0,.01c-.12.08-.24.16-.36.24-.27.17-.56.32-.85.46.45-.22-.21.06-.35.1-.13.04-.25.07-.38.1-.15.03-.71.05-.11.03-.26,0-.52.04-.79.04-.13,0-.26-.02-.39-.02-.62,0,.34.1-.02,0-.25-.06-.51-.1-.76-.17-.15-.04-.31-.1-.46-.15.3.1.25.13-.01-.02s-.49-.28-.72-.44c.44.32-.04-.09-.19-.23-.31-.3,0-.01.04.07-.07-.11-.14-.21-.2-.32s-.12-.22-.17-.34c.21.47-.03-.22-.06-.33-.12-.52-.02-.2-.02-.1-.01-.21-.01-.43,0-.64,0-.06.07-.58.03-.31s.07-.26.08-.31c.2-.84.47-1.5.74-2.07.29-.61.59-1.22.93-1.81.08-.14.16-.28.25-.41-.02.03.43-.58.22-.33-.18.21.15-.15.19-.19.15-.15.41-.29.11-.11.01,0,.59-.31.23-.15-.3.13.09-.02.17-.04.17-.05.58-.06.02-.03.13,0,.26-.02.4-.02s.27.01.4.02c-.11,0-.5-.12-.06,0,.13.04.26.07.39.11.58.15-.36-.23.16.06.24.13.48.26.7.43-.54-.42.39.47.19.22s.1.16.14.22c.08.13.16.27.23.41.2.37-.14-.52.07.17.06.19.12.38.17.57.04.16.06.31.1.47.09.41,0-.55.01.17,0,.32.02.65,0,.97,0,.16-.02.32-.04.49.05-.43,0-.02-.02.06-.09.39-.18.77-.3,1.15-.05.15-.1.3-.16.44.15-.39.01-.02-.02.05-.16.32-.32.63-.51.93-.1.16-.21.33-.33.48.07-.09.28-.31-.05.04-.26.28-.53.56-.83.81.35-.29-.36.22-.45.27-.13.07-.27.14-.4.2.4-.19.06-.03-.03,0-.15.04-.29.09-.44.12,0,0-.71.11-.34.07.32-.03-.16,0-.23,0-.19,0-.37,0-.56-.01-.65-.02.23.11-.11-.02-.13-.05-.29-.07-.43-.11-.07-.02-.48-.21-.22-.07.32.17-.31-.19-.29-.18-.12-.06-.32-.3-.02,0-.1-.09-.2-.18-.29-.27s-.18-.19-.26-.29c.38.44.01-.03-.05-.13-.06-.11-.11-.23-.18-.34.24.41.08.21.03.06-.07-.25-.14-.51-.2-.76-.16-.59-.02.34-.01-.03,0-.13-.02-.27-.03-.4-.01-.35.02-.68.03-1.03,0-.37-.08.41-.01.04.03-.17.06-.34.1-.52.06-.27.13-.55.22-.82s.18-.53.28-.79c-.19.46-.05.12,0,.03.1-.18.18-.37.29-.55.15-.27.33-.53.5-.79.39-.62-.17.18.11-.16.1-.12.2-.24.31-.36.24-.27.49-.52.76-.76.12-.11.24-.21.36-.31-.33.26.18-.11.25-.16.26-.17.53-.31.8-.45-.41.21.29-.1.46-.15.14-.04.29-.06.43-.1-.4.13-.17,0,0,0,.19,0,.37-.01.56,0,.23,0,.46.09.12,0,.12.03.39.15.51.14.29-.03-.3-.19-.05-.03s.51.28.75.45c-.44-.31.1.12.23.26.09.1.17.2.26.3-.38-.43,0,.05.07.14.14.23.26.47.37.71-.25-.5.04.18.09.35.04.15.05.36.12.49.15.3,0-.4,0-.06s.03.67.02,1.01c0,.09-.08.5,0,.17.09-.4-.07.24-.07.26-.07.28-.16.56-.27.83.19-.46-.14.23-.23.38-.07.13-.16.24-.23.37-.35.57.31-.32-.13.19-.19.22-.39.44-.6.64-.13.13-.27.25-.41.37-.05.04-.42.32-.18.15s-.14.09-.2.13c-.15.1-.31.2-.47.3-.29.17-.59.31-.89.47-.36.2.53-.17-.12.05-.14.05-.28.1-.42.15-.29.1-.59.18-.89.25-.16.03-.32.07-.48.09.43-.07.02,0-.06,0-.2,0-.4.02-.6.01-.19,0-.53-.06-.16,0-.15-.03-.3-.08-.46-.11-.65-.13.17.12-.16-.06-.07-.04-.5-.28-.22-.1.31.19-.19-.18-.2-.19-.1-.08-.27-.36.01.06-.07-.11-.15-.21-.21-.33s-.12-.23-.18-.35c.27.5.02-.01-.02-.15-.06-.21-.14-.88-.1-.34-.02-.28-.04-.56-.04-.84,0-.18.01-.35.02-.53,0-.08.07-.53.02-.2s.03-.12.04-.19c.04-.21.09-.41.15-.62.08-.31.19-.61.3-.91-.18.46.17-.34.22-.44.14-.27.3-.54.46-.8.08-.13.17-.26.26-.38.4-.6-.3.32.17-.23.2-.23.4-.46.62-.68.13-.13.27-.26.41-.39.05-.04.41-.35.18-.16s.14-.1.2-.14c.15-.1.31-.2.47-.3.13-.07.26-.14.39-.21.4-.23-.16.03.1-.06.31-.1.62-.19.93-.28.12-.03.47-.05-.03-.01.14-.01.29-.02.43-.03s.96.08.44-.01c.35.06.68.16,1.01.28-.45-.15-.13-.06-.03,0,.15.09.3.17.45.26.06.04.42.29.17.11-.29-.22.23.21.23.21.21.19.39.4.58.61-.07-.08-.26-.39,0,0,.12.18.23.36.34.54.09.16.34.85.19.37.08.27.18.54.25.81,0,0,.13.69.07.3-.05-.33,0,.11,0,.2,0,.14.01.28,0,.42,0,.07-.05.73-.01.42s-.03.14-.05.21c-.03.14-.07.29-.11.43-.05.18-.11.35-.17.52-.04.11-.21.39,0,.01-.14.26-.27.52-.42.77-.08.13-.16.25-.24.37-.38.57.31-.32-.15.19-.2.22-.4.44-.62.64-.11.1-.22.2-.33.3-.52.47.23-.15-.11.09-.28.19-.56.37-.85.54-.13.07-.26.14-.4.21-.41.21.14-.03-.12.06-.3.09-.59.21-.89.28-.21.05-.89.09-.28.07-.26,0-.51.04-.77.04-.16,0-.32-.01-.48-.02-.31,0-.33-.04,0,.02-.55-.09-1.05-.26-1.57-.41-.35-.1.5.29,0-.01-.11-.06-.22-.11-.33-.18s-.21-.13-.31-.19c-.5-.29.34.34-.07-.05-.18-.16-.34-.33-.51-.5-.3-.31.02.02.06.09-.06-.1-.13-.2-.19-.3s-.11-.21-.16-.31c.27.51.07.19.03.01-.03-.12-.05-.25-.09-.36-.03-.16-.03-.12.01.13-.01-.13-.02-.26-.01-.39,0-.06.04-.58,0-.3s.06-.24.07-.3c.05-.21.12-.41.19-.62-.04.1-.18.36.05-.13.35-.71.78-1.38,1.25-2.02-.24.32,0,0,.05-.06.1-.12.21-.25.31-.37.24-.27.49-.54.75-.79.23-.23.47-.44.72-.65.34-.28-.46.29.16-.12.17-.11.33-.22.5-.32s.35-.19.51-.29c.07-.04.44-.2.04-.04.28-.12.58-.19.87-.28.44-.13.14-.05,0-.03.15-.02.3-.03.46-.03s.31,0,.46,0c.58,0-.25-.11.23.05.13.04.28.08.41.12.6.17-.19-.16.09.05.11.08.25.14.37.21.06.04.43.3.19.12-.29-.22.25.24.24.23.1.1.2.21.3.31.07.07.28.37.02,0,.13.18.25.36.36.55.07.13.14.26.21.39-.05-.09-.15-.45,0,0,.09.28.17.56.23.84.1.46.01.13,0,.03.01.2.02.4.02.6,0,.16-.02.32-.02.48,0,.27.08-.28-.02.16-.08.35-.16.7-.28,1.04-.04.1-.25.57-.06.18-.07.15-.14.29-.22.43-.15.28-.33.56-.51.82-.28.41-.12.15-.05.07-.15.18-.32.36-.48.54-.45.46-.74.7-1.23.94.23-.11-.2.07-.27.09-.13.04-.28.05-.4.1-.3.12.53.03-.04,0-.16-.01-.34-.02-.5-.01-.31.02.34.16.07,0-.11-.07-.36-.1-.48-.13-.11-.02-.44-.18.03.04-.12-.06-.25-.12-.36-.18-.24-.13-.47-.28-.69-.44.39.28.1.08.02,0-.14-.15-.3-.28-.44-.44-.09-.1-.19-.21-.27-.32.3.38.07.09.02,0-.08-.15-.18-.29-.27-.45-.04-.07-.24-.46-.1-.17.16.33-.09-.27-.1-.28-.04-.13-.07-.27-.11-.4-.03-.12-.07-.48-.02.05-.02-.21-.03-.41-.03-.62,0-.14.01-.27.02-.41,0,.1-.11.52,0,.08.07-.25.13-.51.21-.76.14-.44.02-.02-.02.05.08-.14.15-.29.23-.43.07-.11.14-.22.21-.33.14-.22.24-.3.02-.05.2-.22.39-.44.61-.65.1-.09.21-.17.3-.26.26-.26-.48.28.05-.03.23-.14.45-.29.68-.41.12-.06.24-.11.36-.18-.5.27.02,0,.14-.04.25-.08.51-.14.76-.2.45-.11.02,0-.08,0,.13-.01.26-.02.39-.03.16,0,.33,0,.49,0,.09,0,.51.04.16,0-.41-.04.22.05.25.06.16.04.32.09.47.14.09.03.43.21.14.05-.35-.2.18.11.21.12.15.09.73.52.27.13.19.16.38.32.55.5.09.09.17.19.25.28.38.39-.2-.34.07.09.13.21.28.42.4.64.07.13.13.3.21.42.19.28-.11-.4-.03-.07.07.27.18.54.25.82.03.12.05.25.08.37.13.51,0-.48.01.08,0,.25.03.5.02.75s-.13.81,0,.27c-.06.24-.1.49-.18.73,0,.03-.22.6-.07.23.14-.34-.08.15-.12.21-.08.14-.16.27-.25.41-.05.08-.31.37-.08.13s-.05.05-.11.1c-.11.11-.22.22-.33.33-.09.08-.19.16-.28.24.07-.06.43-.28.05-.06-.27.16-.54.32-.81.47-.13.07-.41.13.08-.03-.12.04-.24.09-.36.13-.24.08-.48.15-.73.2-.03,0-.65.12-.23.05.36-.06-.05,0-.14,0-.32.01-.63.02-.95,0-.09,0-.5,0-.14,0,.41,0-.17-.03-.23-.04-.25-.05-.49-.11-.73-.19-.12-.04-.23-.09-.35-.13.51.17.2.09.08.02-.27-.16-.54-.32-.8-.49.49.32-.12-.16-.27-.29-.5-.44.1.2-.12-.12-.09-.13-.16-.26-.24-.39-.19-.33.08.33-.01-.03-.02-.08-.12-.56-.05-.2,0-.03,0-.5-.03-.14.03-.27.12-.54.2-.79.29-.93.98-2.23,1.74-3.22-.28.37.33-.36.41-.44.23-.23.47-.47.72-.66-.41.31.25-.12.37-.19s.42-.15-.04,0c.19-.06.38-.12.58-.17.22-.06.31.06-.07,0,.09.01.3.01.41,0-.4.04-.23-.06-.04,0,.14.04.28.07.42.12-.46-.16-.04,0,.08.07.06.04.42.3.19.11s.1.11.15.16c.06.06.47.54.31.33-.18-.24.09.14.12.2.1.16.19.32.28.48.07.13.13.27.2.4-.05-.1-.14-.42,0,.02.09.28.18.56.24.85.03.15.05.29.09.44-.12-.53,0,.13.01.22.02.3,0,.59,0,.89,0,.67.09-.28,0,.1-.03.14-.06.29-.09.43s-.07.28-.12.42-.26.53-.03.1c-.07.13-.13.25-.2.38-.03.06-.38.51-.18.27.24-.27-.26.24-.24.23-.13.15-.31.13.08-.05-.1.05-.22.13-.31.19-.35.23,0,0,.1-.03-.23.08-.46.13-.7.19.56-.15.24-.02.03-.02-.15,0-.3,0-.45,0-.53,0,.14,0,.13.02-.04.04-.37-.09-.43-.11-.15-.04-.34-.23-.11-.03.28.24-.07-.08-.16-.12.08.04.39.38.1.08-.08-.08-.16-.16-.24-.25l.09.12c.12.16.12.15,0-.03-.1-.19-.11-.21-.04-.06.08.17.07.12-.02-.15.03.43.02-.52.03-.61-.05.37.03-.06.04-.11.05-.17.09-.34.13-.52.11-.37.24-.74.37-1.1.03-.07.2-.48.07-.19s.16-.32.2-.38c.07-.13.14-.25.22-.37.04-.07.32-.39.11-.17-.25.27.22-.19.22-.19-.19.17-.13.26-.02.06-.06.11-.51.09-.04.05-.22.02-.27,0-.47,0,.37.03.17.05.01-.04.14.07.5.42.22.13.11.11.22.21.32.33-.26-.32-.03-.01.01.06.07.13.14.27.21.4-.26-.48-.05-.14,0,.02s.19,1.04.13.34c.03.28.04.56.03.84,0,.16-.02.31-.03.47,0-.09.11-.54,0-.11-.06.24-.12.49-.2.73-.04.12-.09.24-.13.36.16-.5.09-.2.02-.07-.15.28-.3.56-.47.83-.07.11-.14.21-.22.31.33-.45.07-.09-.03,0-.18.18-.35.36-.54.53-.11.11-.47.33,0,.02-.1.07-.2.14-.31.21-.19.12-.99.44-.4.25-.24.08-.47.16-.71.22-.12.03-.25.05-.37.07.56-.12.25-.02.1-.03-.13,0-.26,0-.39,0-.04,0-.65-.09-.24,0,.36.07-.05-.02-.14-.04-.17-.05-.38-.15-.55-.16-.32-.02.35.2.07.04-.11-.06-.23-.11-.34-.17-.25-.14-.49-.29-.72-.46.44.33-.09-.11-.22-.24-.09-.09-.18-.18-.27-.28-.1-.11-.38-.57-.09-.1-.13-.22-.29-.43-.42-.65-.06-.11-.12-.23-.18-.34-.3-.52.08.33-.02-.02-.07-.25-.17-.48-.23-.73-.04-.15-.07-.31-.1-.47.07.31.02.33.01,0,0-.29,0-.57,0-.85-.01.56.01-.04.08-.27.03-.12.09-.24.12-.37-.11.47-.09.18,0,.02.19-.35.38-.7.62-1.02-.24.31.01,0,.06-.05.14-.14.27-.29.41-.43.11-.11.23-.22.35-.33.04-.04.42-.36.21-.19-.25.21.37-.27.33-.24.13-.09.27-.18.4-.27.37-.24.76-.44,1.14-.65.02-.01.43-.2.14-.08.16-.07.34-.13.51-.18.33-.11.69-.21,1.03-.25-.42.05.86.05.56.02-.28-.03.14.03.21.05.17.04.33.1.49.15-.49-.15-.09-.04.05.04.12.07.23.14.35.2s.47.36.07.03c.1.09.21.18.31.27.2.19.38.4.56.61-.31-.35-.07-.1-.01,0,.12.18.23.35.34.54.14.25.27.5.39.76-.21-.48.11.37.15.51.08.27.12.56.2.83.11.39-.03-.59.01.07.01.17.03.34.03.51,0,.3-.01.6-.03.9,0,.15-.11.42,0-.06-.03.13-.05.27-.08.4-.06.27-.14.52-.22.78-.13.43,0,.06.03-.04-.08.18-.17.36-.27.53-.09.16-.5.71-.15.3-.1.12-.21.23-.32.35-.05.06-.34.36-.1.12.26-.26-.15.1-.2.13-.11.06-.22.12-.33.18.1-.05.48-.14.07-.05-.14.03-.68.08-.15.06-.14,0-.28,0-.42,0-.18,0-.38-.12.05.02-.18-.05-.86-.28-.39-.07-.29-.13-.57-.29-.83-.47-.06-.04-.42-.32-.19-.13s-.13-.12-.18-.16c-.49-.44-.92-.93-1.34-1.43.25.31-.22-.3-.31-.43-.22-.31-.43-.63-.63-.94-.71-1.1-2.25-1.65-3.42-.9-1.1.71-1.66,2.25-.9,3.42h0Z"/><path class="cls-5" d="m369.02,574.08c3.22,0,3.22-5,0-5s-3.22,5,0,5h0Z"/><path class="cls-5" d="m367.14,579.89c-.63,3.17-.87,6.41-.62,9.63.1,1.3,1.08,2.56,2.5,2.5,1.27-.06,2.61-1.1,2.5-2.5-.18-2.31-.12-4.62.18-6.92l-.09.66c.09-.69.21-1.37.34-2.05.25-1.28-.36-2.76-1.75-3.08-1.24-.28-2.8.37-3.08,1.75h0Z"/><path class="cls-5" d="m369.58,593.07c4.4,2.1,8.91,4.14,13.83,4.54,4.75.39,9.09-1.38,12.96-3.98,1.12-.75,1.61-2.2.9-3.42-.65-1.11-2.29-1.65-3.42-.9-3.21,2.15-6.5,3.63-10.44,3.3-3.97-.33-7.76-2.17-11.31-3.86-1.22-.58-2.7-.34-3.42.9-.64,1.09-.33,2.84.9,3.42h0Z"/><path class="cls-5" d="m364.76,590.13c-.99.92-2.53,1.11-3.8,1.35-1.74.33-3.5.5-5.26.55-3.57.11-7.08-.31-10.54-1.23-3.11-.83-4.44,3.99-1.33,4.82,4.12,1.09,8.43,1.59,12.69,1.37,3.88-.2,8.79-.54,11.78-3.33,2.36-2.2-1.18-5.73-3.54-3.54h0Z"/><path class="cls-5" d="m366.42,592.94c.12.42.29.91.31,1.36-.02-.63-.01-.03,0,.12.02.26.03.53.04.79.02.87-.04,1.74-.12,2.61-.17,1.82-.42,3.63-.33,5.46.06,1.3,1.1,2.56,2.5,2.5,1.3-.06,2.57-1.1,2.5-2.5-.19-3.92,1.08-7.78-.06-11.66-.37-1.25-1.77-2.17-3.08-1.75s-2.14,1.73-1.75,3.08h0Z"/><path class="cls-5" d="m365.85,604.41c-.04,1.41-.25,2.49-.71,4.01-.39,1.28-.97,2.76-1.41,3.77-1.24,2.86-2.61,5.68-3.4,8.71-.34,1.31.43,2.71,1.75,3.08s2.73-.43,3.08-1.75c.81-3.09,2.06-5.54,3.31-8.47s2.29-6.05,2.39-9.35c.04-1.35-1.18-2.5-2.5-2.5-1.39,0-2.46,1.15-2.5,2.5h0Z"/><path class="cls-5" d="m367.78,606.58c2.13,2.48,4.41,5.13,6.33,7.6.88,1.14,1.91,2.65,2.88,3.91.55.71,1.18,1.23,1.91,1.75.1.07.21.15.31.22.15.11.1.07-.13-.1l.14.12c.11-.05.14.26-.04-.11.24.51-.11-.53,0,.05.23,1.29,1.87,2.14,3.08,1.75,1.39-.45,1.99-1.69,1.75-3.08-.15-.84-.68-1.63-1.31-2.2-.34-.31-.73-.58-1.11-.85-.13-.09-.26-.18-.39-.28.22.16.23.21.03,0,.01.01-.44-.46-.3-.3.16.18-.22-.3-.25-.34-.26-.37-.52-.74-.78-1.1-.51-.71-1.04-1.41-1.57-2.1-2.24-2.9-4.61-5.69-7-8.47-.86-1-2.67-.94-3.54,0-.97,1.06-.91,2.47,0,3.54h0Z"/><path class="cls-5" d="m359.57,620.83c-.07.03-.14.06-.22.1l.6-.25c-.57.24-1.16.4-1.77.48l.66-.09c-.43.06-.87.08-1.3.05-.34-.01-.67.06-.96.22-.31.1-.58.27-.8.52-.24.23-.42.49-.52.8-.16.3-.23.62-.22.96.03.65.24,1.32.73,1.77l.51.39c.39.23.81.34,1.26.34.78.04,1.58-.06,2.35-.21s1.49-.44,2.2-.77c.29-.16.53-.37.7-.64.22-.24.37-.52.45-.85.1-.33.12-.66.04-1-.02-.33-.11-.64-.3-.93-.34-.53-.86-1-1.49-1.15l-.66-.09c-.45,0-.87.12-1.26.34h0Z"/><path class="cls-5" d="m382.02,623.4c1.29.68,2.6,1.15,4.06,1.27.66.05,1.35-.03,1.99-.19.4-.1.79-.27,1.16-.44.24-.11.45-.23.66-.39.54-.4.96-.82,1.15-1.49.16-.6.09-1.4-.25-1.93s-.86-1-1.49-1.15-1.4-.14-1.93.25c-.21.15-.43.28-.66.39l.6-.25c-.32.13-.65.22-.99.27l.66-.09c-.38.04-.75.04-1.13,0l.66.09c-.6-.08-1.17-.26-1.72-.49l.6.25c-.29-.13-.57-.26-.85-.41-.59-.31-1.27-.43-1.93-.25-.58.16-1.21.61-1.49,1.15-.31.58-.46,1.28-.25,1.93.2.61.57,1.19,1.15,1.49h0Z"/><path class="cls-24" d="m415.06,573.66c2.16,3.34,5.42,6.95,9.84,5.89,3.79-.91,5.75-5.31,5.42-8.92-.36-3.82-2.66-7.96-6.68-8.85-2.4-.54-4.82.13-6.91,1.35-1.8,1.05-3.51,2.51-4.51,4.36-1.84,3.42-.93,7.63,1.77,10.33s6.75,3.34,9.96,1.31c3.14-1.99,4.94-5.8,4.22-9.47-.42-2.14-1.91-4.18-4.01-4.91-2.39-.83-4.67.5-5.91,2.52-1.05,1.72-1.85,4.12-1.65,6.14.23,2.33,1.7,4.09,3.91,4.83,4,1.35,8-1.64,8.66-5.6s-1.07-8.99-5.27-10.37c-4.17-1.36-7.76,2.21-9.49,5.6-1.16,2.27-1.94,4.75-.8,7.19.87,1.86,2.61,3.15,4.48,3.87,3.28,1.25,7.31.36,9.81-2.07,2.76-2.69,3.04-6.83,1.49-10.2s-5.29-5.46-9.09-4.86c-3.5.55-6.75,3.43-7.46,6.94-.83,4.1,1.73,8.14,5.61,9.53,4.47,1.6,8.67-1.95,10.28-5.89,1.62-3.98.34-8.76-3.43-11.01-3.97-2.37-8.56-.37-11.41,2.77-1.45,1.6-2.85,3.56-3.34,5.7s-.07,4.4,1.36,6.19c2.16,2.71,6.17,3.59,9.43,2.79,3.75-.91,7.17-4.18,7.93-8.01s-1.05-8.31-4.74-10.1c-3.88-1.89-8.33-.34-11,2.86-2.42,2.9-4.03,7.18-2.6,10.9.8,2.08,2.5,3.72,4.74,4.16,2.23.43,4.45-.07,6.48-1.01,3.45-1.59,6.23-5,6.28-8.91s-2.81-7.89-6.95-8.38c-4.11-.49-8,2.68-9.7,6.22-1.67,3.46-1.98,7.86.73,10.9,3.04,3.41,8.52,2.71,11.52-.31,3.05-3.07,4.13-8.11,2.31-12.06-1.67-3.63-6.65-5.67-10.14-3.25-1.8,1.25-2.81,3.31-3.66,5.27-.96,2.21-1.62,4.67-.85,7.04,1.3,3.97,5.61,5.58,9.47,4.93,3.72-.63,6.99-3.93,7.68-7.63.77-4.09-1.43-7.8-5.3-9.23-1.57-.58-3.48-.66-5.05-.03-2.07.83-3.45,2.47-4.47,4.41-1.72,3.28-2.35,7.85,1.22,10.15,1.1.71,2.81.26,3.42-.9.66-1.24.28-2.66-.9-3.42-.39-.25,0,0,.06.06-.09-.1-.26-.44-.15-.15s.02-.02-.04-.12c-.16-.28.11.56.03.02-.02-.11-.05-.25-.08-.35.02.09.02.56.03.11,0-.33,0-.65.04-.97-.06.57.05-.15.1-.33.07-.27.15-.53.24-.79,0,0,.24-.63.09-.27-.13.3.04-.09.08-.16.17-.35.35-.69.55-1.02.08-.14.17-.28.26-.42.03-.04.31-.47.16-.25-.18.25.31-.35.27-.32.11-.12.23-.23.35-.34-.25.24.23-.14.35-.21.36-.23,0,0-.1.03.17-.06.34-.1.51-.16.46-.15-.11-.02-.14,0,.07-.03.27-.02.36-.03.12,0,.24,0,.36,0,.06,0,.62.09.21,0-.37-.07.03.01.12.04.15.04.3.07.44.12.12.04.23.08.35.12-.29-.1-.27-.14,0,.01.25.14.48.28.72.43.14.09.26.29-.06-.05.08.09.19.17.28.25.14.14.55.63.22.19.18.25.34.51.48.79.21.39-.01,0-.04-.08.04.15.1.3.14.46.02.08.12.52.05.19s0,.11,0,.19c.02.32,0,.63-.03.94.01-.11.1-.5-.01-.04-.05.21-.1.41-.16.61-.04.14-.09.27-.14.4.03-.1.21-.43,0-.01-.13.25-.27.51-.42.75-.08.12-.16.24-.24.36.28-.4,0-.01-.08.08-.24.27-.52.5-.77.76s.3-.19,0,.01c-.12.08-.24.16-.36.24-.27.17-.56.32-.85.46.45-.22-.21.06-.35.1-.13.04-.25.07-.38.1-.15.03-.71.05-.11.03-.26,0-.52.04-.79.04-.13,0-.26-.02-.39-.02-.62,0,.34.1-.02,0-.25-.06-.51-.1-.76-.17-.15-.04-.31-.1-.46-.15.3.1.25.13-.01-.02s-.49-.28-.72-.44c.44.32-.04-.09-.19-.23-.31-.3,0-.01.04.07-.07-.11-.14-.21-.2-.32s-.12-.22-.17-.34c.21.47-.03-.22-.06-.33-.12-.52-.02-.2-.02-.1-.01-.21-.01-.43,0-.64,0-.06.07-.58.03-.31s.07-.26.08-.31c.2-.84.47-1.5.74-2.07.29-.61.59-1.22.93-1.81.08-.14.16-.28.25-.41-.02.03.43-.58.22-.33-.18.21.15-.15.19-.19.15-.15.41-.29.11-.11.01,0,.59-.31.23-.15-.3.13.09-.02.17-.04.17-.05.58-.06.02-.03.13,0,.26-.02.4-.02s.27.01.4.02c-.11,0-.5-.12-.06,0,.13.04.26.07.39.11.58.15-.36-.23.16.06.24.13.48.26.7.43-.54-.42.39.47.19.22s.1.16.14.22c.08.13.16.27.23.41.2.37-.14-.52.07.17.06.19.12.38.17.57.04.16.06.31.1.47.09.41,0-.55.01.17,0,.32.02.65,0,.97,0,.16-.02.32-.04.49.05-.43,0-.02-.02.06-.09.39-.18.77-.3,1.15-.05.15-.1.3-.16.44.15-.39.01-.02-.02.05-.16.32-.32.63-.51.93-.1.16-.21.33-.33.48.07-.09.28-.31-.05.04-.26.28-.53.56-.83.81.35-.29-.36.22-.45.27-.13.07-.27.14-.4.2.4-.19.06-.03-.03,0-.15.04-.29.09-.44.12,0,0-.71.11-.34.07.32-.03-.16,0-.23,0-.19,0-.37,0-.56-.01-.65-.02.23.11-.11-.02-.13-.05-.29-.07-.43-.11-.07-.02-.48-.21-.22-.07.32.17-.31-.19-.29-.18-.12-.06-.32-.3-.02,0-.1-.09-.2-.18-.29-.27s-.18-.19-.26-.29c.38.44.01-.03-.05-.13-.06-.11-.11-.23-.18-.34.24.41.08.21.03.06-.07-.25-.14-.51-.2-.76-.16-.59-.02.34-.01-.03,0-.13-.02-.27-.03-.4-.01-.35.02-.68.03-1.03,0-.37-.08.41-.01.04.03-.17.06-.34.1-.52.06-.27.13-.55.22-.82s.18-.53.28-.79c-.19.46-.05.12,0,.03.1-.18.18-.37.29-.55.15-.27.33-.53.5-.79.39-.62-.17.18.11-.16.1-.12.2-.24.31-.36.24-.27.49-.52.76-.76.12-.11.24-.21.36-.31-.33.26.18-.11.25-.16.26-.17.53-.31.8-.45-.41.21.29-.1.46-.15.14-.04.29-.06.43-.1-.4.13-.17,0,0,0,.19,0,.37-.01.56,0,.23,0,.46.09.12,0,.12.03.39.15.51.14.29-.03-.3-.19-.05-.03s.51.28.75.45c-.44-.31.1.12.23.26.09.1.17.2.26.3-.38-.43,0,.05.07.14.14.23.26.47.37.71-.25-.5.04.18.09.35.04.15.05.36.12.49.15.3,0-.4,0-.06s.03.67.02,1.01c0,.09-.08.5,0,.17.09-.4-.07.24-.07.26-.07.28-.16.56-.27.83.19-.46-.14.23-.23.38-.07.13-.16.24-.23.37-.35.57.31-.32-.13.19-.19.22-.39.44-.6.64-.13.13-.27.25-.41.37-.05.04-.42.32-.18.15s-.14.09-.2.13c-.15.1-.31.2-.47.3-.29.17-.59.31-.89.47-.36.2.53-.17-.12.05-.14.05-.28.1-.42.15-.29.1-.59.18-.89.25-.16.03-.32.07-.48.09.43-.07.02,0-.06,0-.2,0-.4.02-.6.01-.19,0-.53-.06-.16,0-.15-.03-.3-.08-.46-.11-.65-.13.17.12-.16-.06-.07-.04-.5-.28-.22-.1.31.19-.19-.18-.2-.19-.1-.08-.27-.36.01.06-.07-.11-.15-.21-.21-.33s-.12-.23-.18-.35c.27.5.02-.01-.02-.15-.06-.21-.14-.88-.1-.34-.02-.28-.04-.56-.04-.84,0-.18.01-.35.02-.53,0-.08.07-.53.02-.2s.03-.12.04-.19c.04-.21.09-.41.15-.62.08-.31.19-.61.3-.91-.18.46.17-.34.22-.44.14-.27.3-.54.46-.8.08-.13.17-.26.26-.38.4-.6-.3.32.17-.23.2-.23.4-.46.62-.68.13-.13.27-.26.41-.39.05-.04.41-.35.18-.16s.14-.1.2-.14c.15-.1.31-.2.47-.3.13-.07.26-.14.39-.21.4-.23-.16.03.1-.06.31-.1.62-.19.93-.28.12-.03.47-.05-.03-.01.14-.01.29-.02.43-.03s.96.08.44-.01c.35.06.68.16,1.01.28-.45-.15-.13-.06-.03,0,.15.09.3.17.45.26.06.04.42.29.17.11-.29-.22.23.21.23.21.21.19.39.4.58.61-.07-.08-.26-.39,0,0,.12.18.23.36.34.54.09.16.34.85.19.37.08.27.18.54.25.81,0,0,.13.69.07.3-.05-.33,0,.11,0,.2,0,.14.01.28,0,.42,0,.07-.05.73-.01.42s-.03.14-.05.21c-.03.14-.07.29-.11.43-.05.18-.11.35-.17.52-.04.11-.21.39,0,.01-.14.26-.27.52-.42.77-.08.13-.16.25-.24.37-.38.57.31-.32-.15.19-.2.22-.4.44-.62.64-.11.1-.22.2-.33.3-.52.47.23-.15-.11.09-.28.19-.56.37-.85.54-.13.07-.26.14-.4.21-.41.21.14-.03-.12.06-.3.09-.59.21-.89.28-.21.05-.89.09-.28.07-.26,0-.51.04-.77.04-.16,0-.32-.01-.48-.02-.31,0-.33-.04,0,.02-.55-.09-1.05-.26-1.57-.41-.35-.1.5.29,0-.01-.11-.06-.22-.11-.33-.18s-.21-.13-.31-.19c-.5-.29.34.34-.07-.05-.18-.16-.34-.33-.51-.5-.3-.31.02.02.06.09-.06-.1-.13-.2-.19-.3s-.11-.21-.16-.31c.27.51.07.19.03.01-.03-.12-.05-.25-.09-.36-.03-.16-.03-.12.01.13-.01-.13-.02-.26-.01-.39,0-.06.04-.58,0-.3s.06-.24.07-.3c.05-.21.12-.41.19-.62-.04.1-.18.36.05-.13.35-.71.78-1.38,1.25-2.02-.24.32,0,0,.05-.06.1-.12.21-.25.31-.37.24-.27.49-.54.75-.79.23-.23.47-.44.72-.65.34-.28-.46.29.16-.12.17-.11.33-.22.5-.32s.35-.19.51-.29c.07-.04.44-.2.04-.04.28-.12.58-.19.87-.28.44-.13.14-.05,0-.03.15-.02.3-.03.46-.03s.31,0,.46,0c.58,0-.25-.11.23.05.13.04.28.08.41.12.6.17-.19-.16.09.05.11.08.25.14.37.21.06.04.43.3.19.12-.29-.22.25.24.24.23.1.1.2.21.3.31.07.07.28.37.02,0,.13.18.25.36.36.55.07.13.14.26.21.39-.05-.09-.15-.45,0,0,.09.28.17.56.23.84.1.46.01.13,0,.03.01.2.02.4.02.6,0,.16-.02.32-.02.48,0,.27.08-.28-.02.16-.08.35-.16.7-.28,1.04-.04.1-.25.57-.06.18-.07.15-.14.29-.22.43-.15.28-.33.56-.51.82-.28.41-.12.15-.05.07-.15.18-.32.36-.48.54-.45.46-.74.7-1.23.94.23-.11-.2.07-.27.09-.13.04-.28.05-.4.1-.3.12.53.03-.04,0-.16-.01-.34-.02-.5-.01-.31.02.34.16.07,0-.11-.07-.36-.1-.48-.13-.11-.02-.44-.18.03.04-.12-.06-.25-.12-.36-.18-.24-.13-.47-.28-.69-.44.39.28.1.08.02,0-.14-.15-.3-.28-.44-.44-.09-.1-.19-.21-.27-.32.3.38.07.09.02,0-.08-.15-.18-.29-.27-.45-.04-.07-.24-.46-.1-.17.16.33-.09-.27-.1-.28-.04-.13-.07-.27-.11-.4-.03-.12-.07-.48-.02.05-.02-.21-.03-.41-.03-.62,0-.14.01-.27.02-.41,0,.1-.11.52,0,.08.07-.25.13-.51.21-.76.14-.44.02-.02-.02.05.08-.14.15-.29.23-.43.07-.11.14-.22.21-.33.14-.22.24-.3.02-.05.2-.22.39-.44.61-.65.1-.09.21-.17.3-.26.26-.26-.48.28.05-.03.23-.14.45-.29.68-.41.12-.06.24-.11.36-.18-.5.27.02,0,.14-.04.25-.08.51-.14.76-.2.45-.11.02,0-.08,0,.13-.01.26-.02.39-.03.16,0,.33,0,.49,0,.09,0,.51.04.16,0-.41-.04.22.05.25.06.16.04.32.09.47.14.09.03.43.21.14.05-.35-.2.18.11.21.12.15.09.73.52.27.13.19.16.38.32.55.5.09.09.17.19.25.28.38.39-.2-.34.07.09.13.21.28.42.4.64.07.13.13.3.21.42.19.28-.11-.4-.03-.07.07.27.18.54.25.82.03.12.05.25.08.37.13.51,0-.48.01.08,0,.25.03.5.02.75s-.13.81,0,.27c-.06.24-.1.49-.18.73,0,.03-.22.6-.07.23.14-.34-.08.15-.12.21-.08.14-.16.27-.25.41-.05.08-.31.37-.08.13s-.05.05-.11.1c-.11.11-.22.22-.33.33-.09.08-.19.16-.28.24.07-.06.43-.28.05-.06-.27.16-.54.32-.81.47-.13.07-.41.13.08-.03-.12.04-.24.09-.36.13-.24.08-.48.15-.73.2-.03,0-.65.12-.23.05.36-.06-.05,0-.14,0-.32.01-.63.02-.95,0-.09,0-.5,0-.14,0,.41,0-.17-.03-.23-.04-.25-.05-.49-.11-.73-.19-.12-.04-.23-.09-.35-.13.51.17.2.09.08.02-.27-.16-.54-.32-.8-.49.49.32-.12-.16-.27-.29-.5-.44.1.2-.12-.12-.09-.13-.16-.26-.24-.39-.19-.33.08.33-.01-.03-.02-.08-.12-.56-.05-.2,0-.03,0-.5-.03-.14.03-.27.12-.54.2-.79.29-.93.98-2.23,1.74-3.22-.28.37.33-.36.41-.44.23-.23.47-.47.72-.66-.41.31.25-.12.37-.19s.42-.15-.04,0c.19-.06.38-.12.58-.17.22-.06.31.06-.07,0,.09.01.3.01.41,0-.4.04-.23-.06-.04,0,.14.04.28.07.42.12-.46-.16-.04,0,.08.07.06.04.42.3.19.11s.1.11.15.16c.06.06.47.54.31.33-.18-.24.09.14.12.2.1.16.19.32.28.48.07.13.13.27.2.4-.05-.1-.14-.42,0,.02.09.28.18.56.24.85.03.15.05.29.09.44-.12-.53,0,.13.01.22.02.3,0,.59,0,.89,0,.67.09-.28,0,.1-.03.14-.06.29-.09.43s-.07.28-.12.42-.26.53-.03.1c-.07.13-.13.25-.2.38-.03.06-.38.51-.18.27.24-.27-.26.24-.24.23-.13.15-.31.13.08-.05-.1.05-.22.13-.31.19-.35.23,0,0,.1-.03-.23.08-.46.13-.7.19.56-.15.24-.02.03-.02-.15,0-.3,0-.45,0-.53,0,.14,0,.13.02-.04.04-.37-.09-.43-.11-.15-.04-.34-.23-.11-.03.28.24-.07-.08-.16-.12.08.04.39.38.1.08-.08-.08-.16-.16-.24-.25l.09.12c.12.16.12.15,0-.03-.1-.19-.11-.21-.04-.06.08.17.07.12-.02-.15.03.43.02-.52.03-.61-.05.37.03-.06.04-.11.05-.17.09-.34.13-.52.11-.37.24-.74.37-1.1.03-.07.2-.48.07-.19s.16-.32.2-.38c.07-.13.14-.25.22-.37.04-.07.32-.39.11-.17-.25.27.22-.19.22-.19-.19.17-.13.26-.02.06-.06.11-.51.09-.04.05-.22.02-.27,0-.47,0,.37.03.17.05.01-.04.14.07.5.42.22.13.11.11.22.21.32.33-.26-.32-.03-.01.01.06.07.13.14.27.21.4-.26-.48-.05-.14,0,.02s.19,1.04.13.34c.03.28.04.56.03.84,0,.16-.02.31-.03.47,0-.09.11-.54,0-.11-.06.24-.12.49-.2.73-.04.12-.09.24-.13.36.16-.5.09-.2.02-.07-.15.28-.3.56-.47.83-.07.11-.14.21-.22.31.33-.45.07-.09-.03,0-.18.18-.35.36-.54.53-.11.11-.47.33,0,.02-.1.07-.2.14-.31.21-.19.12-.99.44-.4.25-.24.08-.47.16-.71.22-.12.03-.25.05-.37.07.56-.12.25-.02.1-.03-.13,0-.26,0-.39,0-.04,0-.65-.09-.24,0,.36.07-.05-.02-.14-.04-.17-.05-.38-.15-.55-.16-.32-.02.35.2.07.04-.11-.06-.23-.11-.34-.17-.25-.14-.49-.29-.72-.46.44.33-.09-.11-.22-.24-.09-.09-.18-.18-.27-.28-.1-.11-.38-.57-.09-.1-.13-.22-.29-.43-.42-.65-.06-.11-.12-.23-.18-.34-.3-.52.08.33-.02-.02-.07-.25-.17-.48-.23-.73-.04-.15-.07-.31-.1-.47.07.31.02.33.01,0,0-.29,0-.57,0-.85-.01.56.01-.04.08-.27.03-.12.09-.24.12-.37-.11.47-.09.18,0,.02.19-.35.38-.7.62-1.02-.24.31.01,0,.06-.05.14-.14.27-.29.41-.43.11-.11.23-.22.35-.33.04-.04.42-.36.21-.19-.25.21.37-.27.33-.24.13-.09.27-.18.4-.27.37-.24.76-.44,1.14-.65.02-.01.43-.2.14-.08.16-.07.34-.13.51-.18.33-.11.69-.21,1.03-.25-.42.05.86.05.56.02-.28-.03.14.03.21.05.17.04.33.1.49.15-.49-.15-.09-.04.05.04.12.07.23.14.35.2s.47.36.07.03c.1.09.21.18.31.27.2.19.38.4.56.61-.31-.35-.07-.1-.01,0,.12.18.23.35.34.54.14.25.27.5.39.76-.21-.48.11.37.15.51.08.27.12.56.2.83.11.39-.03-.59.01.07.01.17.03.34.03.51,0,.3-.01.6-.03.9,0,.15-.11.42,0-.06-.03.13-.05.27-.08.4-.06.27-.14.52-.22.78-.13.43,0,.06.03-.04-.08.18-.17.36-.27.53-.09.16-.5.71-.15.3-.1.12-.21.23-.32.35-.05.06-.34.36-.1.12.26-.26-.15.1-.2.13-.11.06-.22.12-.33.18.1-.05.48-.14.07-.05-.14.03-.68.08-.15.06-.14,0-.28,0-.42,0-.18,0-.38-.12.05.02-.18-.05-.86-.28-.39-.07-.29-.13-.57-.29-.83-.47-.06-.04-.42-.32-.19-.13s-.13-.12-.18-.16c-.49-.44-.92-.93-1.34-1.43.25.31-.22-.3-.31-.43-.22-.31-.43-.63-.63-.94-.71-1.1-2.25-1.65-3.42-.9-1.1.71-1.66,2.25-.9,3.42h0Z"/><path class="cls-24" d="m419.69,573.91c3.22,0,3.22-5,0-5s-3.22,5,0,5h0Z"/><path class="cls-24" d="m417.81,579.71c-.63,3.17-.87,6.41-.62,9.63.1,1.3,1.08,2.56,2.5,2.5,1.27-.06,2.61-1.1,2.5-2.5-.18-2.31-.12-4.62.18-6.92l-.09.66c.09-.69.21-1.37.34-2.05.25-1.28-.36-2.76-1.75-3.08-1.24-.28-2.8.37-3.08,1.75h0Z"/><path class="cls-24" d="m420.25,592.89c4.4,2.1,8.91,4.14,13.83,4.54,4.75.39,9.09-1.38,12.96-3.98,1.12-.75,1.61-2.2.9-3.42-.65-1.11-2.29-1.65-3.42-.9-3.21,2.15-6.5,3.63-10.44,3.3-3.97-.33-7.76-2.17-11.31-3.86-1.22-.58-2.7-.34-3.42.9-.64,1.09-.33,2.84.9,3.42h0Z"/><path class="cls-24" d="m415.43,589.96c-.99.92-2.53,1.11-3.8,1.35-1.74.33-3.5.5-5.26.55-3.57.11-7.08-.31-10.54-1.23-3.11-.83-4.44,3.99-1.33,4.82,4.12,1.09,8.43,1.59,12.69,1.37,3.88-.2,8.79-.54,11.78-3.33,2.36-2.2-1.18-5.73-3.54-3.54h0Z"/><path class="cls-24" d="m417.09,592.77c.12.42.29.91.31,1.36-.02-.63-.01-.03,0,.12.02.26.03.53.04.79.02.87-.04,1.74-.12,2.61-.17,1.82-.42,3.63-.33,5.46.06,1.3,1.1,2.56,2.5,2.5,1.3-.06,2.57-1.1,2.5-2.5-.19-3.92,1.08-7.78-.06-11.66-.37-1.25-1.77-2.17-3.08-1.75s-2.14,1.73-1.75,3.08h0Z"/><path class="cls-24" d="m416.52,604.24c-.04,1.41-.25,2.49-.71,4.01-.39,1.28-.97,2.76-1.41,3.77-1.24,2.86-2.61,5.68-3.4,8.71-.34,1.31.43,2.71,1.75,3.08s2.73-.43,3.08-1.75c.81-3.09,2.06-5.54,3.31-8.47s2.29-6.05,2.39-9.35c.04-1.35-1.18-2.5-2.5-2.5-1.39,0-2.46,1.15-2.5,2.5h0Z"/><path class="cls-24" d="m418.45,606.4c2.13,2.48,4.41,5.13,6.33,7.6.88,1.14,1.91,2.65,2.88,3.91.55.71,1.18,1.23,1.91,1.75.1.07.21.15.31.22.15.11.1.07-.13-.1l.14.12c.11-.05.14.26-.04-.11.24.51-.11-.53,0,.05.23,1.29,1.87,2.14,3.08,1.75,1.39-.45,1.99-1.69,1.75-3.08-.15-.84-.68-1.63-1.31-2.2-.34-.31-.73-.58-1.11-.85-.13-.09-.26-.18-.39-.28.22.16.23.21.03,0,.01.01-.44-.46-.3-.3.16.18-.22-.3-.25-.34-.26-.37-.52-.74-.78-1.1-.51-.71-1.04-1.41-1.57-2.1-2.24-2.9-4.61-5.69-7-8.47-.86-1-2.67-.94-3.54,0-.97,1.06-.91,2.47,0,3.54h0Z"/><path class="cls-24" d="m410.24,620.65c-.07.03-.14.06-.22.1l.6-.25c-.57.24-1.16.4-1.77.48l.66-.09c-.43.06-.87.08-1.3.05-.34-.01-.67.06-.96.22-.31.1-.58.27-.8.52-.24.23-.42.49-.52.8-.16.3-.23.62-.22.96.03.65.24,1.32.73,1.77l.51.39c.39.23.81.34,1.26.34.78.04,1.58-.06,2.35-.21s1.49-.44,2.2-.77c.29-.16.53-.37.7-.64.22-.24.37-.52.45-.85.1-.33.12-.66.04-1-.02-.33-.11-.64-.3-.93-.34-.53-.86-1-1.49-1.15l-.66-.09c-.45,0-.87.12-1.26.34h0Z"/><path class="cls-24" d="m432.69,623.22c1.29.68,2.6,1.15,4.06,1.27.66.05,1.35-.03,1.99-.19.4-.1.79-.27,1.16-.44.24-.11.45-.23.66-.39.54-.4.96-.82,1.15-1.49.16-.6.09-1.4-.25-1.93s-.86-1-1.49-1.15-1.4-.14-1.93.25c-.21.15-.43.28-.66.39l.6-.25c-.32.13-.65.22-.99.27l.66-.09c-.38.04-.75.04-1.13,0l.66.09c-.6-.08-1.17-.26-1.72-.49l.6.25c-.29-.13-.57-.26-.85-.41-.59-.31-1.27-.43-1.93-.25-.58.16-1.21.61-1.49,1.15-.31.58-.46,1.28-.25,1.93.2.61.57,1.19,1.15,1.49h0Z"/><path class="cls-23" d="m467.69,573.98c2.16,3.34,5.42,6.95,9.84,5.89,3.79-.91,5.75-5.31,5.42-8.92-.36-3.82-2.66-7.96-6.68-8.85-2.4-.54-4.82.13-6.91,1.35-1.8,1.05-3.51,2.51-4.51,4.36-1.84,3.42-.93,7.63,1.77,10.33s6.75,3.34,9.96,1.31c3.14-1.99,4.94-5.8,4.22-9.47-.42-2.14-1.91-4.18-4.01-4.91-2.39-.83-4.67.5-5.91,2.52-1.05,1.72-1.85,4.12-1.65,6.14.23,2.33,1.7,4.09,3.91,4.83,4,1.35,8-1.64,8.66-5.6s-1.07-8.99-5.27-10.37-7.76,2.21-9.49,5.6c-1.16,2.27-1.94,4.75-.8,7.19.87,1.86,2.61,3.15,4.48,3.87,3.28,1.25,7.31.36,9.81-2.07,2.76-2.69,3.04-6.83,1.49-10.2-1.62-3.51-5.29-5.46-9.09-4.86-3.5.55-6.75,3.43-7.46,6.94-.83,4.1,1.73,8.14,5.61,9.53,4.47,1.6,8.67-1.95,10.28-5.89,1.62-3.98.34-8.76-3.43-11.01-3.97-2.37-8.56-.37-11.41,2.77-1.45,1.6-2.85,3.56-3.34,5.7s-.07,4.4,1.36,6.19c2.16,2.71,6.17,3.59,9.43,2.79,3.75-.91,7.17-4.18,7.93-8.01s-1.05-8.31-4.74-10.1c-3.88-1.89-8.33-.34-11,2.86-2.42,2.9-4.03,7.18-2.6,10.9.8,2.08,2.5,3.72,4.74,4.16,2.23.43,4.45-.07,6.48-1.01,3.45-1.59,6.23-5,6.28-8.91s-2.81-7.89-6.95-8.38-8,2.68-9.7,6.22c-1.67,3.46-1.98,7.86.73,10.9,3.04,3.41,8.52,2.71,11.52-.31,3.05-3.07,4.13-8.11,2.31-12.06-1.67-3.63-6.65-5.67-10.14-3.25-1.8,1.25-2.81,3.31-3.66,5.27-.96,2.21-1.62,4.67-.85,7.04,1.3,3.97,5.61,5.58,9.47,4.93,3.72-.63,6.99-3.93,7.68-7.63.77-4.09-1.43-7.8-5.3-9.23-1.57-.58-3.48-.66-5.05-.03-2.07.83-3.45,2.47-4.47,4.41-1.72,3.28-2.35,7.85,1.22,10.15,1.1.71,2.81.26,3.42-.9.66-1.24.28-2.66-.9-3.42-.39-.25,0,0,.06.06-.09-.1-.26-.44-.15-.15s.02-.02-.04-.12c-.16-.28.11.56.03.02-.02-.11-.05-.25-.08-.35.02.09.02.56.03.11,0-.33,0-.65.04-.97-.06.57.05-.15.1-.33.07-.27.15-.53.24-.79,0,0,.24-.63.09-.27-.13.3.04-.09.08-.16.17-.35.35-.69.55-1.02.08-.14.17-.28.26-.42.03-.04.31-.47.16-.25-.18.25.31-.35.27-.32.11-.12.23-.23.35-.34-.25.24.23-.14.35-.21.36-.23,0,0-.1.03.17-.06.34-.1.51-.16.46-.15-.11-.02-.14,0,.07-.03.27-.02.36-.03.12,0,.24,0,.36,0,.06,0,.62.09.21,0-.37-.07.03.01.12.04.15.04.3.07.44.12.12.04.23.08.35.12-.29-.1-.27-.14,0,.01.25.14.48.28.72.43.14.09.26.29-.06-.05.08.09.19.17.28.25.14.14.55.63.22.19.18.25.34.51.48.79.21.39-.01,0-.04-.08.04.15.1.3.14.46.02.08.12.52.05.19s0,.11,0,.19c.02.32,0,.63-.03.94.01-.11.1-.5-.01-.04-.05.21-.1.41-.16.61-.04.14-.09.27-.14.4.03-.1.21-.43,0-.01-.13.25-.27.51-.42.75-.08.12-.16.24-.24.36.28-.4,0-.01-.08.08-.24.27-.52.5-.77.76s.3-.19,0,.01c-.12.08-.24.16-.36.24-.27.17-.56.32-.85.46.45-.22-.21.06-.35.1-.13.04-.25.07-.38.1-.15.03-.71.05-.11.03-.26,0-.52.04-.79.04-.13,0-.26-.02-.39-.02-.62,0,.34.1-.02,0-.25-.06-.51-.1-.76-.17-.15-.04-.31-.1-.46-.15.3.1.25.13-.01-.02s-.49-.28-.72-.44c.44.32-.04-.09-.19-.23-.31-.3,0-.01.04.07-.07-.11-.14-.21-.2-.32s-.12-.22-.17-.34c.21.47-.03-.22-.06-.33-.12-.52-.02-.2-.02-.1-.01-.21-.01-.43,0-.64,0-.06.07-.58.03-.31s.07-.26.08-.31c.2-.84.47-1.5.74-2.07.29-.61.59-1.22.93-1.81.08-.14.16-.28.25-.41-.02.03.43-.58.22-.33-.18.21.15-.15.19-.19.15-.15.41-.29.11-.11.01,0,.59-.31.23-.15-.3.13.09-.02.17-.04.17-.05.58-.06.02-.03.13,0,.26-.02.4-.02s.27.01.4.02c-.11,0-.5-.12-.06,0,.13.04.26.07.39.11.58.15-.36-.23.16.06.24.13.48.26.7.43-.54-.42.39.47.19.22s.1.16.14.22c.08.13.16.27.23.41.2.37-.14-.52.07.17.06.19.12.38.17.57.04.16.06.31.1.47.09.41,0-.55.01.17,0,.32.02.65,0,.97,0,.16-.02.32-.04.49.05-.43,0-.02-.02.06-.09.39-.18.77-.3,1.15-.05.15-.1.3-.16.44.15-.39.01-.02-.02.05-.16.32-.32.63-.51.93-.1.16-.21.33-.33.48.07-.09.28-.31-.05.04-.26.28-.53.56-.83.81.35-.29-.36.22-.45.27-.13.07-.27.14-.4.2.4-.19.06-.03-.03,0-.15.04-.29.09-.44.12,0,0-.71.11-.34.07.32-.03-.16,0-.23,0-.19,0-.37,0-.56-.01-.65-.02.23.11-.11-.02-.13-.05-.29-.07-.43-.11-.07-.02-.48-.21-.22-.07.32.17-.31-.19-.29-.18-.12-.06-.32-.3-.02,0-.1-.09-.2-.18-.29-.27s-.18-.19-.26-.29c.38.44.01-.03-.05-.13-.06-.11-.11-.23-.18-.34.24.41.08.21.03.06-.07-.25-.14-.51-.2-.76-.16-.59-.02.34-.01-.03,0-.13-.02-.27-.03-.4-.01-.35.02-.68.03-1.03,0-.37-.08.41-.01.04.03-.17.06-.34.1-.52.06-.27.13-.55.22-.82s.18-.53.28-.79c-.19.46-.05.12,0,.03.1-.18.18-.37.29-.55.15-.27.33-.53.5-.79.39-.62-.17.18.11-.16.1-.12.2-.24.31-.36.24-.27.49-.52.76-.76.12-.11.24-.21.36-.31-.33.26.18-.11.25-.16.26-.17.53-.31.8-.45-.41.21.29-.1.46-.15.14-.04.29-.06.43-.1-.4.13-.17,0,0,0,.19,0,.37-.01.56,0,.23,0,.46.09.12,0,.12.03.39.15.51.14.29-.03-.3-.19-.05-.03s.51.28.75.45c-.44-.31.1.12.23.26.09.1.17.2.26.3-.38-.43,0,.05.07.14.14.23.26.47.37.71-.25-.5.04.18.09.35.04.15.05.36.12.49.15.3,0-.4,0-.06s.03.67.02,1.01c0,.09-.08.5,0,.17.09-.4-.07.24-.07.26-.07.28-.16.56-.27.83.19-.46-.14.23-.23.38-.07.13-.16.24-.23.37-.35.57.31-.32-.13.19-.19.22-.39.44-.6.64-.13.13-.27.25-.41.37-.05.04-.42.32-.18.15s-.14.09-.2.13c-.15.1-.31.2-.47.3-.29.17-.59.31-.89.47-.36.2.53-.17-.12.05-.14.05-.28.1-.42.15-.29.1-.59.18-.89.25-.16.03-.32.07-.48.09.43-.07.02,0-.06,0-.2,0-.4.02-.6.01-.19,0-.53-.06-.16,0-.15-.03-.3-.08-.46-.11-.65-.13.17.12-.16-.06-.07-.04-.5-.28-.22-.1.31.19-.19-.18-.2-.19-.1-.08-.27-.36.01.06-.07-.11-.15-.21-.21-.33s-.12-.23-.18-.35c.27.5.02-.01-.02-.15-.06-.21-.14-.88-.1-.34-.02-.28-.04-.56-.04-.84,0-.18.01-.35.02-.53,0-.08.07-.53.02-.2s.03-.12.04-.19c.04-.21.09-.41.15-.62.08-.31.19-.61.3-.91-.18.46.17-.34.22-.44.14-.27.3-.54.46-.8.08-.13.17-.26.26-.38.4-.6-.3.32.17-.23.2-.23.4-.46.62-.68.13-.13.27-.26.41-.39.05-.04.41-.35.18-.16s.14-.1.2-.14c.15-.1.31-.2.47-.3.13-.07.26-.14.39-.21.4-.23-.16.03.1-.06.31-.1.62-.19.93-.28.12-.03.47-.05-.03-.01.14-.01.29-.02.43-.03s.96.08.44-.01c.35.06.68.16,1.01.28-.45-.15-.13-.06-.03,0,.15.09.3.17.45.26.06.04.42.29.17.11-.29-.22.23.21.23.21.21.19.39.4.58.61-.07-.08-.26-.39,0,0,.12.18.23.36.34.54.09.16.34.85.19.37.08.27.18.54.25.81,0,0,.13.69.07.3-.05-.33,0,.11,0,.2,0,.14.01.28,0,.42,0,.07-.05.73-.01.42s-.03.14-.05.21c-.03.14-.07.29-.11.43-.05.18-.11.35-.17.52-.04.11-.21.39,0,.01-.14.26-.27.52-.42.77-.08.13-.16.25-.24.37-.38.57.31-.32-.15.19-.2.22-.4.44-.62.64-.11.1-.22.2-.33.3-.52.47.23-.15-.11.09-.28.19-.56.37-.85.54-.13.07-.26.14-.4.21-.41.21.14-.03-.12.06-.3.09-.59.21-.89.28-.21.05-.89.09-.28.07-.26,0-.51.04-.77.04-.16,0-.32-.01-.48-.02-.31,0-.33-.04,0,.02-.55-.09-1.05-.26-1.57-.41-.35-.1.5.29,0-.01-.11-.06-.22-.11-.33-.18s-.21-.13-.31-.19c-.5-.29.34.34-.07-.05-.18-.16-.34-.33-.51-.5-.3-.31.02.02.06.09-.06-.1-.13-.2-.19-.3s-.11-.21-.16-.31c.27.51.07.19.03.01-.03-.12-.05-.25-.09-.36-.03-.16-.03-.12.01.13-.01-.13-.02-.26-.01-.39,0-.06.04-.58,0-.3s.06-.24.07-.3c.05-.21.12-.41.19-.62-.04.1-.18.36.05-.13.35-.71.78-1.38,1.25-2.02-.24.32,0,0,.05-.06.1-.12.21-.25.31-.37.24-.27.49-.54.75-.79.23-.23.47-.44.72-.65.34-.28-.46.29.16-.12.17-.11.33-.22.5-.32s.35-.19.51-.29c.07-.04.44-.2.04-.04.28-.12.58-.19.87-.28.44-.13.14-.05,0-.03.15-.02.3-.03.46-.03s.31,0,.46,0c.58,0-.25-.11.23.05.13.04.28.08.41.12.6.17-.19-.16.09.05.11.08.25.14.37.21.06.04.43.3.19.12-.29-.22.25.24.24.23.1.1.2.21.3.31.07.07.28.37.02,0,.13.18.25.36.36.55.07.13.14.26.21.39-.05-.09-.15-.45,0,0,.09.28.17.56.23.84.1.46.01.13,0,.03.01.2.02.4.02.6,0,.16-.02.32-.02.48,0,.27.08-.28-.02.16-.08.35-.16.7-.28,1.04-.04.1-.25.57-.06.18-.07.15-.14.29-.22.43-.15.28-.33.56-.51.82-.28.41-.12.15-.05.07-.15.18-.32.36-.48.54-.45.46-.74.7-1.23.94.23-.11-.2.07-.27.09-.13.04-.28.05-.4.1-.3.12.53.03-.04,0-.16-.01-.34-.02-.5-.01-.31.02.34.16.07,0-.11-.07-.36-.1-.48-.13-.11-.02-.44-.18.03.04-.12-.06-.25-.12-.36-.18-.24-.13-.47-.28-.69-.44.39.28.1.08.02,0-.14-.15-.3-.28-.44-.44-.09-.1-.19-.21-.27-.32.3.38.07.09.02,0-.08-.15-.18-.29-.27-.45-.04-.07-.24-.46-.1-.17.16.33-.09-.27-.1-.28-.04-.13-.07-.27-.11-.4-.03-.12-.07-.48-.02.05-.02-.21-.03-.41-.03-.62,0-.14.01-.27.02-.41,0,.1-.11.52,0,.08.07-.25.13-.51.21-.76.14-.44.02-.02-.02.05.08-.14.15-.29.23-.43.07-.11.14-.22.21-.33.14-.22.24-.3.02-.05.2-.22.39-.44.61-.65.1-.09.21-.17.3-.26.26-.26-.48.28.05-.03.23-.14.45-.29.68-.41.12-.06.24-.11.36-.18-.5.27.02,0,.14-.04.25-.08.51-.14.76-.2.45-.11.02,0-.08,0,.13-.01.26-.02.39-.03.16,0,.33,0,.49,0,.09,0,.51.04.16,0-.41-.04.22.05.25.06.16.04.32.09.47.14.09.03.43.21.14.05-.35-.2.18.11.21.12.15.09.73.52.27.13.19.16.38.32.55.5.09.09.17.19.25.28.38.39-.2-.34.07.09.13.21.28.42.4.64.07.13.13.3.21.42.19.28-.11-.4-.03-.07.07.27.18.54.25.82.03.12.05.25.08.37.13.51,0-.48.01.08,0,.25.03.5.02.75s-.13.81,0,.27c-.06.24-.1.49-.18.73,0,.03-.22.6-.07.23.14-.34-.08.15-.12.21-.08.14-.16.27-.25.41-.05.08-.31.37-.08.13s-.05.05-.11.1c-.11.11-.22.22-.33.33-.09.08-.19.16-.28.24.07-.06.43-.28.05-.06-.27.16-.54.32-.81.47-.13.07-.41.13.08-.03-.12.04-.24.09-.36.13-.24.08-.48.15-.73.2-.03,0-.65.12-.23.05.36-.06-.05,0-.14,0-.32.01-.63.02-.95,0-.09,0-.5,0-.14,0,.41,0-.17-.03-.23-.04-.25-.05-.49-.11-.73-.19-.12-.04-.23-.09-.35-.13.51.17.2.09.08.02-.27-.16-.54-.32-.8-.49.49.32-.12-.16-.27-.29-.5-.44.1.2-.12-.12-.09-.13-.16-.26-.24-.39-.19-.33.08.33-.01-.03-.02-.08-.12-.56-.05-.2,0-.03,0-.5-.03-.14.03-.27.12-.54.2-.79.29-.93.98-2.23,1.74-3.22-.28.37.33-.36.41-.44.23-.23.47-.47.72-.66-.41.31.25-.12.37-.19s.42-.15-.04,0c.19-.06.38-.12.58-.17.22-.06.31.06-.07,0,.09.01.3.01.41,0-.4.04-.23-.06-.04,0,.14.04.28.07.42.12-.46-.16-.04,0,.08.07.06.04.42.3.19.11s.1.11.15.16c.06.06.47.54.31.33-.18-.24.09.14.12.2.1.16.19.32.28.48.07.13.13.27.2.4-.05-.1-.14-.42,0,.02.09.28.18.56.24.85.03.15.05.29.09.44-.12-.53,0,.13.01.22.02.3,0,.59,0,.89,0,.67.09-.28,0,.1-.03.14-.06.29-.09.43s-.07.28-.12.42-.26.53-.03.1c-.07.13-.13.25-.2.38-.03.06-.38.51-.18.27.24-.27-.26.24-.24.23-.13.15-.31.13.08-.05-.1.05-.22.13-.31.19-.35.23,0,0,.1-.03-.23.08-.46.13-.7.19.56-.15.24-.02.03-.02-.15,0-.3,0-.45,0-.53,0,.14,0,.13.02-.04.04-.37-.09-.43-.11-.15-.04-.34-.23-.11-.03.28.24-.07-.08-.16-.12.08.04.39.38.1.08-.08-.08-.16-.16-.24-.25l.09.12c.12.16.12.15,0-.03-.1-.19-.11-.21-.04-.06.08.17.07.12-.02-.15.03.43.02-.52.03-.61-.05.37.03-.06.04-.11.05-.17.09-.34.13-.52.11-.37.24-.74.37-1.1.03-.07.2-.48.07-.19s.16-.32.2-.38c.07-.13.14-.25.22-.37.04-.07.32-.39.11-.17-.25.27.22-.19.22-.19-.19.17-.13.26-.02.06-.06.11-.51.09-.04.05-.22.02-.27,0-.47,0,.37.03.17.05.01-.04.14.07.5.42.22.13.11.11.22.21.32.33-.26-.32-.03-.01.01.06.07.13.14.27.21.4-.26-.48-.05-.14,0,.02s.19,1.04.13.34c.03.28.04.56.03.84,0,.16-.02.31-.03.47,0-.09.11-.54,0-.11-.06.24-.12.49-.2.73-.04.12-.09.24-.13.36.16-.5.09-.2.02-.07-.15.28-.3.56-.47.83-.07.11-.14.21-.22.31.33-.45.07-.09-.03,0-.18.18-.35.36-.54.53-.11.11-.47.33,0,.02-.1.07-.2.14-.31.21-.19.12-.99.44-.4.25-.24.08-.47.16-.71.22-.12.03-.25.05-.37.07.56-.12.25-.02.1-.03-.13,0-.26,0-.39,0-.04,0-.65-.09-.24,0,.36.07-.05-.02-.14-.04-.17-.05-.38-.15-.55-.16-.32-.02.35.2.07.04-.11-.06-.23-.11-.34-.17-.25-.14-.49-.29-.72-.46.44.33-.09-.11-.22-.24-.09-.09-.18-.18-.27-.28-.1-.11-.38-.57-.09-.1-.13-.22-.29-.43-.42-.65-.06-.11-.12-.23-.18-.34-.3-.52.08.33-.02-.02-.07-.25-.17-.48-.23-.73-.04-.15-.07-.31-.1-.47.07.31.02.33.01,0,0-.29,0-.57,0-.85-.01.56.01-.04.08-.27.03-.12.09-.24.12-.37-.11.47-.09.18,0,.02.19-.35.38-.7.62-1.02-.24.31.01,0,.06-.05.14-.14.27-.29.41-.43.11-.11.23-.22.35-.33.04-.04.42-.36.21-.19-.25.21.37-.27.33-.24.13-.09.27-.18.4-.27.37-.24.76-.44,1.14-.65.02-.01.43-.2.14-.08.16-.07.34-.13.51-.18.33-.11.69-.21,1.03-.25-.42.05.86.05.56.02-.28-.03.14.03.21.05.17.04.33.1.49.15-.49-.15-.09-.04.05.04.12.07.23.14.35.2s.47.36.07.03c.1.09.21.18.31.27.2.19.38.4.56.61-.31-.35-.07-.1-.01,0,.12.18.23.35.34.54.14.25.27.5.39.76-.21-.48.11.37.15.51.08.27.12.56.2.83.11.39-.03-.59.01.07.01.17.03.34.03.51,0,.3-.01.6-.03.9,0,.15-.11.42,0-.06-.03.13-.05.27-.08.4-.06.27-.14.52-.22.78-.13.43,0,.06.03-.04-.08.18-.17.36-.27.53-.09.16-.5.71-.15.3-.1.12-.21.23-.32.35-.05.06-.34.36-.1.12.26-.26-.15.1-.2.13-.11.06-.22.12-.33.18.1-.05.48-.14.07-.05-.14.03-.68.08-.15.06-.14,0-.28,0-.42,0-.18,0-.38-.12.05.02-.18-.05-.86-.28-.39-.07-.29-.13-.57-.29-.83-.47-.06-.04-.42-.32-.19-.13s-.13-.12-.18-.16c-.49-.44-.92-.93-1.34-1.43.25.31-.22-.3-.31-.43-.22-.31-.43-.63-.63-.94-.71-1.1-2.25-1.65-3.42-.9-1.1.71-1.66,2.25-.9,3.42h0Z"/><path class="cls-23" d="m472.33,574.22c3.22,0,3.22-5,0-5s-3.22,5,0,5h0Z"/><path class="cls-23" d="m470.45,580.03c-.63,3.17-.87,6.41-.62,9.63.1,1.3,1.08,2.56,2.5,2.5,1.27-.06,2.61-1.1,2.5-2.5-.18-2.31-.12-4.62.18-6.92l-.09.66c.09-.69.21-1.37.34-2.05.25-1.28-.36-2.76-1.75-3.08-1.24-.28-2.8.37-3.08,1.75h0Z"/><path class="cls-23" d="m472.89,593.21c4.4,2.1,8.91,4.14,13.83,4.54,4.75.39,9.09-1.38,12.96-3.98,1.12-.75,1.61-2.2.9-3.42-.65-1.11-2.29-1.65-3.42-.9-3.21,2.15-6.5,3.63-10.44,3.3-3.97-.33-7.76-2.17-11.31-3.86-1.22-.58-2.7-.34-3.42.9-.64,1.09-.33,2.84.9,3.42h0Z"/><path class="cls-23" d="m468.07,590.27c-.99.92-2.53,1.11-3.8,1.35-1.74.33-3.5.5-5.26.55-3.57.11-7.08-.31-10.54-1.23-3.11-.83-4.44,3.99-1.33,4.82,4.12,1.09,8.43,1.59,12.69,1.37,3.88-.2,8.79-.54,11.78-3.33,2.36-2.2-1.18-5.73-3.54-3.54h0Z"/><path class="cls-23" d="m469.73,593.08c.12.42.29.91.31,1.36-.02-.63-.01-.03,0,.12.02.26.03.53.04.79.02.87-.04,1.74-.12,2.61-.17,1.82-.42,3.63-.33,5.46.06,1.3,1.1,2.56,2.5,2.5,1.3-.06,2.57-1.1,2.5-2.5-.19-3.92,1.08-7.78-.06-11.66-.37-1.25-1.77-2.17-3.08-1.75s-2.14,1.73-1.75,3.08h0Z"/><path class="cls-23" d="m469.16,604.55c-.04,1.41-.25,2.49-.71,4.01-.39,1.28-.97,2.76-1.41,3.77-1.24,2.86-2.61,5.68-3.4,8.71-.34,1.31.43,2.71,1.75,3.08s2.73-.43,3.08-1.75c.81-3.09,2.06-5.54,3.31-8.47,1.27-3.01,2.29-6.05,2.39-9.35.04-1.35-1.18-2.5-2.5-2.5-1.39,0-2.46,1.15-2.5,2.5h0Z"/><path class="cls-23" d="m471.09,606.71c2.13,2.48,4.41,5.13,6.33,7.6.88,1.14,1.91,2.65,2.88,3.91.55.71,1.18,1.23,1.91,1.75.1.07.21.15.31.22.15.11.1.07-.13-.1l.14.12c.11-.05.14.26-.04-.11.24.51-.11-.53,0,.05.23,1.29,1.87,2.14,3.08,1.75,1.39-.45,1.99-1.69,1.75-3.08-.15-.84-.68-1.63-1.31-2.2-.34-.31-.73-.58-1.11-.85-.13-.09-.26-.18-.39-.28.22.16.23.21.03,0,.01.01-.44-.46-.3-.3.16.18-.22-.3-.25-.34-.26-.37-.52-.74-.78-1.1-.51-.71-1.04-1.41-1.57-2.1-2.24-2.9-4.61-5.69-7-8.47-.86-1-2.67-.94-3.54,0-.97,1.06-.91,2.47,0,3.54h0Z"/><path class="cls-23" d="m462.88,620.97c-.07.03-.14.06-.22.1l.6-.25c-.57.24-1.16.4-1.77.48l.66-.09c-.43.06-.87.08-1.3.05-.34-.01-.67.06-.96.22-.31.1-.58.27-.8.52-.24.23-.42.49-.52.8-.16.3-.23.62-.22.96.03.65.24,1.32.73,1.77l.51.39c.39.23.81.34,1.26.34.78.04,1.58-.06,2.35-.21s1.49-.44,2.2-.77c.29-.16.53-.37.7-.64.22-.24.37-.52.45-.85.1-.33.12-.66.04-1-.02-.33-.11-.64-.3-.93-.34-.53-.86-1-1.49-1.15l-.66-.09c-.45,0-.87.12-1.26.34h0Z"/><path class="cls-23" d="m485.33,623.54c1.29.68,2.6,1.15,4.06,1.27.66.05,1.35-.03,1.99-.19.4-.1.79-.27,1.16-.44.24-.11.45-.23.66-.39.54-.4.96-.82,1.15-1.49.16-.6.09-1.4-.25-1.93s-.86-1-1.49-1.15-1.4-.14-1.93.25c-.21.15-.43.28-.66.39l.6-.25c-.32.13-.65.22-.99.27l.66-.09c-.38.04-.75.04-1.13,0l.66.09c-.6-.08-1.17-.26-1.72-.49l.6.25c-.29-.13-.57-.26-.85-.41-.59-.31-1.27-.43-1.93-.25-.58.16-1.21.61-1.49,1.15-.31.58-.46,1.28-.25,1.93.2.61.57,1.19,1.15,1.49h0Z"/><text class="cls-7" transform="translate(210.97 705.16)"><tspan class="cls-3" x="0" y="0">with </tspan><tspan class="cls-14" x="107.85" y="0">BESimpli</tspan><tspan class="cls-12" x="322.1" y="0">f</tspan><tspan class="cls-13" x="341.65" y="0">ed</tspan><tspan class="cls-3" x="405.85" y="0">!</tspan></text><path class="cls-20" d="m841.32,912.05c-29.8-12.65-62.57-19.66-96.97-19.66-137.29,0-248.59,111.47-248.59,248.97,0,16.79,1.67,33.19,4.84,49.06h340.72v-278.37Z"/><image width="3000" height="3000" transform="translate(596.24 954.73) scale(.07)" xlink:href="frame.png"/><text class="cls-6" transform="translate(418.18 924.17)"><tspan class="cls-14" x="0" y="0">S</tspan><tspan class="cls-16" x="22.64" y="0">c</tspan><tspan class="cls-9" x="43.85" y="0">an</tspan><tspan class="cls-4" x="84.91" y="0" xml:space="preserve"> mij!</tspan></text><path class="cls-8" d="m481.38,942.76c-3.79,8.45-3.81,18.11-.66,26.77,3.15,8.64,9.1,15.73,16.37,21.24,3.96,3,8.3,5.46,12.84,7.47l-.51-3.93c-2.38,2.39-5.82,2.89-8.88,1.62l-1.33,4.82c2.45.49,4.94.83,7.44.96,2.2.12,4.97.45,6.86-.91,2-1.43,1.92-3.76,1.62-5.94-.34-2.48-.68-4.95-1.03-7.43-.18-1.34-1.9-2.07-3.08-1.75-1.44.4-1.93,1.73-1.75,3.08.24,1.76.49,3.52.73,5.27.11.8.26,1.61.32,2.42,0,.1,0,.69,0,.69-.37-.25.77-.22.25-.41-.46-.17-1.45.05-1.97.04-.9,0-1.79-.04-2.68-.11-1.81-.13-3.6-.38-5.38-.74-1.32-.27-2.7.38-3.08,1.75-.4,1.44.49,2.55,1.75,3.08,4.64,1.93,10.24.63,13.75-2.9,1.03-1.04,1-3.26-.51-3.93-14.5-6.43-27.98-18.56-28.99-35.38-.27-4.52.37-9.12,2.23-13.27.55-1.23.36-2.69-.9-3.42-1.07-.63-2.86-.34-3.42.9h0Z"/><path class="cls-18" d="m566.29,889.71c-16.22-3.36-32.45-6.68-48.84-9.12s-32.49-3.98-48.85-3.74c-8.08.11-16.15.67-24.15,1.76-7.62,1.04-15.44,2.32-22.62,5.19-6.11,2.44-11.72,6.19-15.49,11.66-3.68,5.34-4.87,11.82-3.23,18.1,3.66,14.01,17.31,21.22,30.01,25.49,14.87,5,30.48,7.52,46.1,8.52s31.64.62,47.39-.5c7.64-.54,15.29-1.38,22.79-2.97,7.06-1.5,14.38-3.56,20.72-7.1,4.93-2.76,9.9-7.26,9.68-13.39-.23-6.65-6.03-11.88-10.55-16.08-9.97-9.26-21.65-16.53-34.04-22.08-12.58-5.63-25.86-9.57-39.34-12.36-14.54-3-29.45-4.96-44.31-5.02-15.14-.07-30.86,1.85-44.91,7.76-6.08,2.55-11.86,6.46-14.41,12.8-1.19,2.96-1.51,6.28-.58,9.35s3.04,5.85,5.23,8.29c9.28,10.32,20.91,18.43,33.4,24.37,13.51,6.43,28.08,10.33,42.88,12.36,15.89,2.18,32.04,2.35,48.03,1.35,15.62-.98,31.3-3.38,46.01-8.89,5.42-2.03,11.72-4.74,14.08-10.47,2.61-6.34-1.24-12.81-5.46-17.39-4.76-5.17-10.66-9.54-16.47-13.46-5.99-4.05-12.32-7.57-18.92-10.53-6.32-2.84-12.87-5.14-19.57-6.91-.78-.2-1.11,1-.33,1.21,13.53,3.56,26.41,9.38,38.01,17.19,5.63,3.79,11.28,7.99,15.96,12.92,4.52,4.76,8.83,11.93,4.68,18.28-3.56,5.46-11.08,7.66-16.91,9.57-7.04,2.31-14.29,3.97-21.61,5.14-15.21,2.44-30.83,3.04-46.21,2.52-28.64-.97-57.82-7.46-81.4-24.48-5.49-3.97-10.61-8.48-15.16-13.5-2.27-2.51-4.47-5.31-5.25-8.67s.03-6.79,1.67-9.72c3.48-6.25,10.31-9.42,16.79-11.67,7.12-2.47,14.51-4.12,21.98-5.07,14.82-1.88,29.88-1.12,44.64.88,13.24,1.79,26.4,4.51,39.15,8.56,12.53,3.98,24.69,9.3,35.76,16.42,5.58,3.59,10.87,7.64,15.73,12.16,4.53,4.21,10.94,9.83,10.13,16.7-.72,6.12-6.83,9.99-11.96,12.29-6.82,3.06-14.15,4.98-21.5,6.28-7.45,1.32-15,1.97-22.54,2.41s-14.86.72-22.3.78c-15.13.12-30.32-.72-45.22-3.49-7.43-1.38-14.77-3.24-21.93-5.67-6.63-2.25-13.25-5.09-18.72-9.55-5.12-4.18-9.12-9.9-10.37-16.47s1-13.17,5.47-18.14c4.68-5.21,11.09-8.31,17.72-10.25,7.22-2.11,14.78-3.23,22.24-4.04,31.51-3.45,63.22,1.15,94.14,7.14,7.48,1.45,14.95,2.99,22.41,4.53.79.16,1.12-1.04.33-1.21h0Z"/></svg>