<?xml version="1.0" encoding="UTF-8"?><svg id="Layer_1" xmlns="http://www.w3.org/2000/svg" viewBox="0 0 841.89 1190.55"><defs><style>.cls-1,.cls-2,.cls-3{fill:#0e111d;}.cls-4{font-size:60px;}.cls-5,.cls-6,.cls-7,.cls-8{fill:#497f87;}.cls-9{letter-spacing:0em;}.cls-10{fill:#f5f3ee;}.cls-11{fill:#93b3b8;}.cls-12,.cls-13,.cls-14,.cls-15{fill:#75abbf;}.cls-12,.cls-6,.cls-7,.cls-8,.cls-3{font-family:PlusJakartaSans-Regular, 'Plus Jakarta Sans';}.cls-2{font-family:Karla-Regular, Karla;font-size:25px;}.cls-13{font-family:PlusJakartaSans-Bold, 'Plus Jakarta Sans';}.cls-13,.cls-16{font-weight:700;}.cls-15{font-family:PlusJakartaSans-Medium, 'Plus Jakarta Sans';font-weight:500;}.cls-17{fill:#e2d7c5;}.cls-17,.cls-18{fill-rule:evenodd;}.cls-6{letter-spacing:0em;}.cls-16{font-family:Karla-Bold, Karla;font-size:40px;}.cls-8{letter-spacing:-.02em;}.cls-19{fill:#231f20;}.cls-18{fill:#eee7db;}.cls-3{font-size:50px;}</style></defs><rect class="cls-10" x=".4" y=".07" width="841.1" height="1190.41"/><path class="cls-17" d="m451.58,52.22c-3.24-22.95-17.51-38.91-36.39-52.22H0v366.09c23.84,21.82,49.02,40.51,80.56,46.3,62.34,11.43,131.57-6.78,181.03-46.43,48.02-38.49,48.21-110.24,80.09-162.89,32.78-54.14,118.75-88.17,109.9-150.85Z"/><path class="cls-18" d="m406.2,65.64C401.59,33.06,371.52,16.62,340.03,0H0v328.87c24.36,23.42,49.22,45.22,81.88,51.21,54.49,9.98,115.01-5.92,158.24-40.54,41.97-33.6,42.14-96.25,70.01-142.21,28.66-47.27,103.8-76.98,96.06-131.7Z"/><path class="cls-17" d="m842.7,338.88c-7.3.09-14.51-.28-21.57-1.34-67.19-10.09-129.29-63.47-194.98-46.11-67.12,17.74-141.02,69.05-151.51,137.68-11.47,74.95,83.92,125.93,99.85,200.07,11.23,52.27-43.02,106.19-23.37,155.91,19.64,49.69,81,65.46,123.62,97.68,48.96,37.01,86.03,95.34,146.39,106.4,7.11,1.3,14.32,2.2,21.57,2.75V338.88Z"/><path class="cls-18" d="m843.3,387.92c-7.15.19-14.21-.1-21.1-1.13-58.78-8.82-113.11-55.52-170.58-40.34-58.72,15.52-123.37,60.41-132.55,120.45-10.03,65.57,73.42,110.17,87.35,175.03,9.82,45.73-37.64,92.9-20.44,136.39,17.18,43.47,70.86,57.27,108.15,85.45,42.83,32.37,75.26,83.41,128.07,93.09,6.95,1.27,14,2.12,21.1,2.57V387.92Z"/><path class="cls-17" d="m396.97,1004.08c-9.33-66.2-109.99-74.33-149.3-128.34-33.23-45.65-12.47-122.69-57.83-156.25-44.77-33.12-108.86.5-163.89-7.78-8.91-1.34-17.73-3.45-26.48-6.05v484.9h270.95c4.64-12.3,9.95-24.25,16.65-35.35,32.78-54.25,118.75-88.34,109.9-151.14Z"/><path class="cls-18" d="m236.96,1190.58c5.06-14.85,10.76-29.4,18.73-42.58,28.61-47.34,103.63-77.09,95.91-131.9-8.15-57.78-95.99-64.86-130.29-112-29-39.84-10.89-107.07-50.47-136.36-39.07-28.9-95.01.44-143.03-6.79-9.39-1.41-18.67-3.8-27.87-6.75v436.38h237.03Z"/><text class="cls-3" transform="translate(53.24 90.5)"><tspan x="0" y="0">Wist je d</tspan><tspan class="cls-9" x="198.05" y="0">a</tspan><tspan x="226.15" y="0">t...</tspan></text><text class="cls-2" transform="translate(56.99 121.86)"><tspan x="0" y="0">In een onderzoek met meer dan 11 000 jongeren...</tspan></text><text class="cls-16" transform="translate(51.7 341.94)"><tspan class="cls-1" x="0" y="0">Slechts</tspan><tspan class="cls-19" x="141.86" y="0"> </tspan><tspan class="cls-5" x="151.98" y="0">2,1%</tspan><tspan class="cls-19" x="231.14" y="0"> </tspan><tspan class="cls-1" x="241.26" y="0">te vinden is </tspan><tspan class="cls-1"><tspan x="0" y="48">voor stemplicht?</tspan></tspan></text><text class="cls-16" transform="translate(289.86 577.99)"><tspan class="cls-14" x="0" y="0">57,6%</tspan><tspan class="cls-1" x="108.16" y="0" xml:space="preserve"> vindt dat politici te </tspan><tspan class="cls-1"><tspan x="8.84" y="48">veel praten en te weining </tspan></tspan><tspan class="cls-1"><tspan x="370.03" y="96">doen?</tspan></tspan></text><path class="cls-5" d="m58.49,225.69v65.53h65.53v-65.53H58.49Zm32.68,63.1c-16.73,0-30.29-13.56-30.29-30.29s13.56-30.29,30.29-30.29,30.29,13.56,30.29,30.29-13.56,30.29-30.29,30.29Z"/><path class="cls-5" d="m559.92,356.11v61.01h61.01v-61.01h-61.01Zm30.42,58.74c-15.57,0-28.2-12.63-28.2-28.2s12.63-28.2,28.2-28.2,28.2,12.63,28.2,28.2-12.63,28.2-28.2,28.2Z"/><path class="cls-5" d="m428.22,211.41v61.59h61.59v-61.59h-61.59Zm30.72,59.31c-15.72,0-28.47-12.75-28.47-28.47s12.75-28.47,28.47-28.47,28.47,12.75,28.47,28.47-12.75,28.47-28.47,28.47Z"/><path class="cls-14" d="m72.78,250.49c3.26-1.97,6.61-3.79,10.05-5.44,1.59-.76,3.2-1.49,4.83-2.17.84-.35,1.69-.69,2.55-1.02.48-.18.95-.38,1.44-.54,1.26-.41-.48.36-.66-.91v-1.33c-.04.26-.13.36.04.12-.09.12-.24.25-.36.34-.54.37-1.1.72-1.65,1.08-1.17.77-2.33,1.53-3.5,2.3-2.27,1.49-4.53,2.97-6.8,4.46-4.53,2.97-9.06,5.94-13.6,8.92-2.7,1.77-.36,5.76,2.52,4.32,11.24-5.63,22.49-11.26,33.73-16.9l-3.76-2.16c-.04.47-1.51,1.28-1.84,1.51-1.25.89-2.5,1.78-3.75,2.66-2.44,1.72-4.89,3.43-7.35,5.13-4.92,3.39-9.88,6.73-14.87,10.01l2.52,4.32c10.25-7.13,21.45-12.77,33.3-16.67l-1.93-4.57c-11.19,8.4-22.87,16.11-35,23.08l2.52,4.32c12.57-7.63,25.56-14.54,38.91-20.72l-2.52-4.32c-10.42,6.91-20.85,13.82-31.27,20.74-2.67,1.77-.32,5.89,2.52,4.32,10.17-5.62,20.7-10.59,31.52-14.84l-1.93-4.57c-5.35,2.9-10.69,5.8-16.04,8.7-2.54,1.38-5.1,2.73-7.63,4.15-2.24,1.26-4.45,2.72-6.04,4.78-.76.99-1.04,2.23-.2,3.28s2.09,1.22,3.23.64c10.05-5.1,20.1-10.21,30.14-15.31l-2.52-4.32c-10.64,6.69-21.29,13.39-31.93,20.08-2.72,1.71-.29,5.92,2.52,4.32,11.79-6.7,24.02-12.6,36.62-17.6l-1.93-4.57c-7.64,4.56-15.28,9.12-22.92,13.68-2.76,1.65-.3,5.88,2.52,4.32,5.68-3.14,11.55-5.93,17.6-8.3l-1.93-4.57c-7.47,5.4-15.12,10.54-22.94,15.42l2.52,4.32c6.68-4.25,13.79-7.75,21.26-10.37l-1.93-4.57c-6.05,4.22-12.11,8.44-18.16,12.67-1.02.71-1.55,1.93-1.02,3.12.46,1.05,1.77,1.9,2.95,1.45,4.97-1.9,9.94-3.8,14.91-5.69,1.26-.48,2.13-1.68,1.75-3.08-.33-1.21-1.81-2.23-3.08-1.75-4.97,1.9-9.94,3.8-14.91,5.69l1.93,4.57c6.05-4.22,12.11-8.44,18.16-12.67,1.02-.71,1.55-1.93,1.02-3.12-.47-1.07-1.75-1.87-2.95-1.45-7.87,2.77-15.41,6.4-22.45,10.88-2.7,1.72-.22,6.03,2.52,4.32,7.82-4.88,15.47-10.02,22.94-15.42,1.01-.73,1.56-1.91,1.02-3.12-.46-1.04-1.77-1.91-2.95-1.45-6.45,2.53-12.73,5.45-18.79,8.8l2.52,4.32c7.64-4.56,15.28-9.12,22.92-13.68,1.06-.63,1.52-1.99,1.02-3.12-.46-1.04-1.78-1.91-2.95-1.45-13.01,5.16-25.65,11.19-37.82,18.11l2.52,4.32c10.64-6.69,21.29-13.39,31.93-20.08,2.74-1.72.34-5.77-2.52-4.32-10.05,5.1-20.1,10.21-30.14,15.31l3.03,3.93c1.45-1.87,3.34-3.07,5.39-4.2,2.56-1.42,5.14-2.79,7.71-4.19,5.2-2.82,10.4-5.64,15.6-8.46,2.43-1.32.75-5.62-1.93-4.57-11.22,4.41-22.16,9.52-32.71,15.35l2.52,4.32c10.42-6.91,20.85-13.82,31.27-20.74,2.71-1.8.38-5.66-2.52-4.32-13.34,6.18-26.33,13.09-38.91,20.72-2.75,1.67-.28,5.93,2.52,4.32,12.12-6.98,23.81-14.69,35-23.08,1-.75,1.56-1.89,1.02-3.12-.48-1.09-1.75-1.84-2.95-1.45-12.25,4.04-23.9,9.81-34.5,17.18-1.11.77-1.62,2.19-.9,3.42.66,1.12,2.29,1.64,3.42.9,5.53-3.64,11.02-7.34,16.46-11.11,2.66-1.84,5.3-3.69,7.93-5.56s5.62-3.47,5.89-6.95c.16-2.02-2.21-2.94-3.76-2.16-11.24,5.63-22.49,11.26-33.73,16.9l2.52,4.32c7.42-4.86,14.83-9.73,22.25-14.59,1.64-1.08,3.65-2.05,4.91-3.57,1.47-1.77,1.49-4.5-.68-5.75-1.85-1.07-3.88-.19-5.67.52-1.98.77-3.93,1.6-5.87,2.47-4.24,1.91-8.36,4.09-12.34,6.5-2.75,1.66-.24,5.99,2.52,4.32h0Z"/><path class="cls-14" d="m449.88,224.58c2.41-1.18,4.97-1.93,7.62-2.35-.64-1.52-1.28-3.05-1.93-4.57-8.19,5.21-16.38,10.42-24.57,15.63-2.7,1.72-.27,5.96,2.52,4.32,9.88-5.8,20.57-9.94,31.56-13.09l-1.93-4.57c-7.9,5-15.8,10-23.7,15-1.05.66-1.53,1.96-1.02,3.12.46,1.04,1.78,1.91,2.95,1.45,10.1-4.02,20.19-8.03,30.29-12.05l-1.93-4.57c-5.99,3.9-11.98,7.79-17.97,11.69-5.31,3.46-10.65,7.02-15.06,11.62-1.96,2.04.53,5.35,3.03,3.93,12.12-6.87,24.31-13.8,37.38-18.73l-1.93-4.57c-10.14,7.25-20.29,14.5-30.43,21.75-1.85,1.32-1.44,3.74.6,4.57,2.84,1.16,5.82-.73,8.31-1.92,2.9-1.39,5.81-2.77,8.71-4.16,5.73-2.74,11.47-5.48,17.2-8.22l-2.52-4.32c-8.21,6.03-16.43,12.06-24.64,18.08-2.58,1.89-.41,5.74,2.52,4.32,8.3-4.01,16.6-8.02,24.9-12.02l-3.67-1.49c.38,1.1-2.79,2.76-3.55,3.28-2.17,1.5-4.34,3-6.51,4.5-4.34,3-8.68,6-13.01,8.99-.9.62-1.49,1.71-1.15,2.82,1.87,6.14,9.89,1.01,13.1-.84,4.18-2.42,8.51-5.34,13.45-5.83l-1.77-4.27c-3.25,3.46-6.81,6.58-10.71,9.28-2.69,1.87-.4,5.58,2.52,4.32,2.21-.96,4.42-1.91,6.63-2.87,1.24-.54,1.52-2.36.9-3.42-.75-1.28-2.18-1.44-3.42-.9-2.21.96-4.42,1.91-6.63,2.87l2.52,4.32c4.25-2.95,8.18-6.3,11.72-10.06,1.35-1.44.51-4.49-1.77-4.27-4.66.46-8.8,2.38-12.83,4.69-1.93,1.1-3.83,2.26-5.79,3.31-.93.49-1.89,1.05-2.88,1.41-.32.12-.53.16-.67.18-.18.03-.37-.02-.37,0,.01.07.75.54.82.76l-1.15,2.82c5.02-3.47,10.03-6.93,15.05-10.4,2.37-1.64,4.82-3.21,7.12-4.94s4.2-4.18,3.2-7.07c-.55-1.61-2.16-2.22-3.67-1.49-8.3,4.01-16.6,8.02-24.9,12.02l2.52,4.32c8.21-6.03,16.43-12.06,24.64-18.08,2.58-1.89.42-5.72-2.52-4.32-5.29,2.53-10.57,5.05-15.86,7.58-2.61,1.25-5.21,2.49-7.82,3.74-1.27.6-2.53,1.21-3.8,1.81-.91.44-1.89,1.08-2.89.67l.6,4.57c10.14-7.25,20.29-14.5,30.43-21.75,1.01-.72,1.55-1.92,1.02-3.12-.46-1.05-1.77-1.89-2.95-1.45-13.49,5.08-26.07,12.14-38.58,19.23l3.03,3.93c4.23-4.41,9.32-7.76,14.41-11.07,5.87-3.82,11.73-7.63,17.6-11.45,1.04-.68,1.54-1.95,1.02-3.12-.46-1.04-1.78-1.91-2.95-1.45-10.1,4.02-20.19,8.03-30.29,12.05.64,1.52,1.28,3.05,1.93,4.57,7.9-5,15.8-10,23.7-15,2.34-1.48.88-5.37-1.93-4.57-11.38,3.26-22.52,7.59-32.75,13.6l2.52,4.32c8.19-5.21,16.38-10.42,24.57-15.63,2.51-1.6.8-5-1.93-4.57-3.08.49-6.01,1.48-8.81,2.85-1.21.59-1.54,2.32-.9,3.42.72,1.24,2.2,1.49,3.42.9h0Z"/><path class="cls-14" d="m575.52,374.92l21.27-8.76-1.93-4.57c-10.3,5.48-20.6,10.96-30.91,16.44-2.47,1.31-.78,5.49,1.93,4.57,11.91-4.03,23.81-8.06,35.72-12.1l-1.33-4.82c-11.81,4.9-23.38,10.36-34.64,16.42-2.44,1.31-.75,5.64,1.93,4.57,11.85-4.73,23.96-8.76,36.28-12.07l-1.93-4.57c-12.6,6.76-25.2,13.51-37.8,20.27-2.45,1.31-.77,5.54,1.93,4.57,13.72-4.95,27.44-9.91,41.16-14.86l-1.93-4.57c-11.44,6.39-22.89,12.78-34.33,19.17-2.52,1.41-.79,5.21,1.93,4.57,12.3-2.92,22.84-10.98,35.47-12.75l-2.43-4.18c-4.09,3.51-8.86,6.08-13.53,8.71-5.22,2.94-10.44,5.88-15.66,8.82-2.41,1.36-.79,5.55,1.93,4.57,10.99-3.95,22-7.88,33.37-10.6l-1.93-4.57c-6.6,4.11-13.5,7.69-20.66,10.71-1.7.72-1.57,3.56,0,4.32,2.8,1.36,5.66,1.12,8.63.5,2.1-.44,4.83-1.44,6.85-.48l-.51-3.93c-4.07,3.8-8.21,7.52-12.43,11.17-1.02.88-.91,2.63,0,3.54,1.01,1.01,2.51.89,3.54,0,4.21-3.64,8.36-7.37,12.43-11.17,1.11-1.03.93-3.24-.51-3.93-2.81-1.34-5.67-1.11-8.64-.48-2.1.44-4.82,1.43-6.84.46v4.32c7.16-3.03,14.06-6.6,20.66-10.71,2.41-1.5.85-5.23-1.93-4.57-11.37,2.72-22.38,6.65-33.37,10.6l1.93,4.57c5.36-3.02,10.73-6.04,16.09-9.06,4.92-2.77,9.81-5.56,14.11-9.25.83-.71.92-2.13.39-3.03-.61-1.04-1.71-1.31-2.82-1.15-12.64,1.77-23.17,9.83-35.47,12.75l1.93,4.57c11.44-6.39,22.89-12.78,34.33-19.17,2.42-1.35.79-5.55-1.93-4.57-13.72,4.95-27.44,9.91-41.16,14.86l1.93,4.57c12.6-6.76,25.2-13.51,37.8-20.27,2.52-1.35.79-5.3-1.93-4.57-12.32,3.31-24.43,7.34-36.28,12.07l1.93,4.57c10.88-5.85,22.04-11.19,33.44-15.92,1.25-.52,2.14-1.66,1.75-3.08-.34-1.25-1.79-2.18-3.08-1.75-11.91,4.03-23.81,8.06-35.72,12.1l1.93,4.57c10.3-5.48,20.6-10.96,30.91-16.44,2.44-1.3.73-5.66-1.93-4.57-7.09,2.92-14.18,5.84-21.27,8.76-1.25.51-2.14,1.66-1.75,3.08.32,1.18,1.82,2.26,3.08,1.75h0Z"/><text class="cls-16" transform="translate(56.9 843.66)"><tspan class="cls-1" x="0" y="0">En meer dan </tspan><tspan class="cls-5" x="247.68" y="0">45%</tspan><tspan class="cls-1" x="325.33" y="0" xml:space="preserve"> gewoonweg niet </tspan><tspan class="cls-1"><tspan x="0" y="48">geïnteresseerd is in politiek?</tspan></tspan></text><text class="cls-4" transform="translate(139.26 1058.13)"><tspan class="cls-7" x="0" y="0">Hier moe</tspan><tspan class="cls-8" x="255.96" y="0">t</tspan><tspan class="cls-7" x="278.04" y="0">en </tspan><tspan class="cls-6" x="359.52" y="0">w</tspan><tspan class="cls-7" x="406.74" y="0">e</tspan><tspan class="cls-12" x="443.64" y="0"> </tspan><tspan class="cls-13" x="453.84" y="0">iets</tspan><tspan class="cls-15" x="561.29" y="0"> </tspan><tspan class="cls-7"><tspan x="140.28" y="72">aan doen!</tspan></tspan></text><path class="cls-5" d="m186.39,584.36c.37-11.88,9.43-20.91,19.36-26.16,2.75-1.46,5.61-2.73,8.63-3.52,3.2-.84,6.49-.97,9.79-.77,5.5.34,11.49,1.16,16.44,3.74s7.67,6.89,9.45,11.98c2.05,5.85,3.97,12.22,4.12,18.46.26,10.68-6.66,20.04-15.95,24.77-3.03,1.54-6.27,2.61-9.55,3.48-3.55.94-7.2,1.85-10.87,2.1-7.26.5-13.41-2.79-19.53-6.27l-.6,4.57c9.5-2.13,18.49-7.34,24.86-14.74,1.95-2.27,3.03-4.8,2.04-7.78-.8-2.42-2.55-4.38-4.63-5.8-4.59-3.13-10.31-2.92-15.62-2.91-6.77.01-13.5-.81-20.2-1.64-1.34-.17-2.5,1.27-2.5,2.5,0,1.49,1.15,2.33,2.5,2.5,5.24.65,10.49,1.3,15.77,1.54,4.78.22,9.95-.56,14.58.89,1.66.52,3.3,1.42,4.41,2.78.51.62,1,1.46,1.09,2.27.1.86-.44,1.5-.97,2.11-2.75,3.18-5.98,5.93-9.56,8.14-4.05,2.5-8.45,4.27-13.09,5.32-2.12.48-2.41,3.54-.6,4.57,6.1,3.47,12.47,6.88,19.66,7.01,3.73.07,7.46-.66,11.08-1.49,3.38-.77,6.73-1.67,9.96-2.94,11.1-4.35,20.64-13.72,22.4-25.91,1.04-7.25-.8-14.42-2.85-21.33-1.84-6.21-4.32-12.36-9.62-16.42-4.81-3.68-10.85-5.13-16.74-5.93-3.73-.51-7.5-.86-11.26-.53s-7.28,1.34-10.74,2.82c-13.4,5.71-25.77,17.13-26.25,32.59-.1,3.22,4.9,3.22,5,0h0Z"/><path class="cls-5" d="m190.62,577.39c.33,1.71.84,3.34,1.99,4.7.64.75,1.58,1.36,2.55,1.56,1.62.33,3.07-.3,4.01-1.65.3-.43.48-.96.67-1.44.14-.36.26-.73.35-1.11.22-.92.34-1.89.33-2.83-.04-2.03-.51-4.4-2.39-5.52-1.53-.92-3.29-.25-4.41.96-.68.74-1.28,1.58-1.68,2.51-.28.64-.45,1.22-.25,1.93.16.58.61,1.21,1.15,1.49,1.19.63,2.72.31,3.42-.9.36-.63.72-1.26,1.09-1.89.63-1.08.34-2.47-.64-3.23-.42-.33-.97-.56-1.51-.54-.7.03-1.22.3-1.77.73-.5.4-1,.8-1.51,1.21-.47.37-.73,1.2-.73,1.77,0,.61.27,1.35.73,1.77s1.1.76,1.77.73c.7-.03,1.22-.3,1.77-.73.5-.4,1-.8,1.51-1.21l-3.93-3.03c-.36.63-.72,1.26-1.09,1.89l4.32,2.52c.24-.56.54-1.08.91-1.56l-.39.51c.24-.31.5-.6.8-.85l-.51.39c.11-.08.21-.14.33-.2l-.6.25c.07-.03.15-.04.22-.05l-.66.09c.06,0,.13,0,.19.01l-.66-.09c.06.01.12.03.18.05l-.6-.25c.09.04.16.09.24.15l-.51-.39c.08.07.14.14.21.22l-.39-.51c.13.17.23.36.32.56l-.25-.6c.19.48.28.99.35,1.5l-.09-.66c.1.77.09,1.55-.01,2.32l.09-.66c-.11.73-.3,1.43-.58,2.1l.25-.6c-.1.23-.2.45-.34.66l.39-.51c-.08.1-.15.18-.24.26l.51-.39c-.1.07-.18.12-.29.17l.6-.25c-.11.04-.2.06-.32.07l.66-.09c-.11,0-.22,0-.33-.01l.66.09c-.15-.03-.29-.07-.44-.13l.6.25c-.18-.08-.35-.18-.51-.29l.51.39c-.22-.17-.41-.37-.58-.59l.39.51c-.24-.32-.43-.66-.6-1.03l.25.6c-.33-.79-.51-1.63-.67-2.47-.25-1.29-1.86-2.14-3.08-1.75-1.37.44-2.01,1.7-1.75,3.08h0Z"/><path class="cls-5" d="m192.92,572.96c3.35-3.14,6.97-5.95,10.83-8.43,1.35-.87.1-3.03-1.26-2.16-4.04,2.59-7.84,5.54-11.34,8.82-1.18,1.1.59,2.87,1.77,1.77h0Z"/><path class="cls-5" d="m191.25,553.86c4.37-.78,8.93,1.05,11.72,4.46.43.52,1.32.44,1.77,0,.52-.52.43-1.24,0-1.77-3.38-4.12-8.94-6.03-14.15-5.1-.67.12-1.04.93-.87,1.54.19.7.87.99,1.54.87h0Z"/><path class="cls-5" d="m200.73,550.38c3.65-.51,7.59.54,10.5,2.79.53.41,1.25.52,1.77,0,.43-.43.54-1.35,0-1.77-3.71-2.87-8.29-4.09-12.94-3.44-.67.09-1.04.95-.87,1.54.2.72.87.97,1.54.87h0Z"/><path class="cls-5" d="m215.14,544.47c3.7.49,7.27,2.67,9.43,5.75.39.55,1.09.81,1.71.45.55-.32.84-1.16.45-1.71-2.73-3.87-6.9-6.36-11.59-6.98-.67-.09-1.25.64-1.25,1.25,0,.75.58,1.16,1.25,1.25h0Z"/><path class="cls-5" d="m172.52,629.52c1.62,3.44,4.48,6.31,7.93,7.93,1.87.88,3.82,1.34,5.87,1.59,2.34.28,4.7.34,6.98,1.02,1.54.46,2.2-1.95.66-2.41-3.92-1.18-8.19-.57-11.98-2.23-3.23-1.42-5.8-3.98-7.3-7.16-.69-1.45-2.84-.19-2.16,1.26h0Z"/><path class="cls-14" d="m155.39,629.14l-.59,2.77c-.07.33-.05.67.13.96.15.26.45.51.75.57.32.07.68.06.96-.13.26-.17.51-.43.57-.75l.59-2.77c.07-.33.05-.67-.13-.96-.15-.26-.45-.51-.75-.57-.32-.07-.68-.06-.96.13-.26.17-.51.43-.57.75h0Z"/><path class="cls-14" d="m163.96,630l.31,5.6c.04.65.55,1.28,1.25,1.25.65-.03,1.29-.55,1.25-1.25l-.31-5.6c-.04-.65-.55-1.28-1.25-1.25-.65.03-1.29.55-1.25,1.25h0Z"/><path class="cls-14" d="m160.34,618.63c.68-1.36,1.26-2.77,1.73-4.21.2-.62-.23-1.39-.87-1.54-.69-.16-1.32.21-1.54.87-.25.77-.53,1.52-.84,2.26l.13-.3c-.24.56-.49,1.11-.76,1.65-.29.58-.17,1.38.45,1.71.57.3,1.4.18,1.71-.45h0Z"/><path class="cls-14" d="m168.91,618.33c.55-.86.98-1.83,1.21-2.83.24-1.07.25-2.11.09-3.18-.04-.29-.34-.61-.57-.75-.27-.16-.66-.22-.96-.13s-.59.29-.75.57c-.17.32-.18.61-.13.96.02.14.02.11-.01-.08,0,.06.01.11.02.17,0,.1.02.2.02.29,0,.21,0,.42,0,.63,0,.08,0,.17-.02.25,0,.06-.01.11-.02.17-.02.14-.01.11.01-.08.04.03-.1.54-.11.58-.05.2-.1.39-.16.58-.04.11-.08.22-.12.33-.03.08-.09.34,0,.03-.05.19-.18.39-.27.57-.12.22-.24.43-.37.64-.35.55-.13,1.4.45,1.71.62.33,1.34.14,1.71-.45h0Z"/><path class="cls-5" d="m172.5,620.73c-2.35-3.62-6.76-4.05-10.68-3.45-3.62.55-8.15,1.43-9.51,5.36-.58,1.66-.29,3.58.98,4.84s2.97,1.5,4.6,1.63c2.16.17,4.27.4,6.41.74s4.3.66,6.42.27c1.97-.37,3.73-1.64,4.09-3.71.39-2.28-.85-4.27-2.46-5.76-1.18-1.09-2.95.67-1.77,1.77.95.87,2.01,2.07,1.8,3.48-.2,1.31-1.54,1.74-2.69,1.86-3.32.35-6.66-.81-9.95-1.04-1.86-.13-5.77.02-5.17-2.9s4.12-3.41,6.48-3.87c3.08-.6,7.31-1.01,9.29,2.05.87,1.34,3.04.09,2.16-1.26h0Z"/><path class="cls-14" d="m155.15,600.54c.83,3.85,1.22,7.76,1.18,11.7,0,.67.58,1.25,1.25,1.25,4.74,0,9.47-.31,14.17-.91.85-.11,1.37-.71,1.21-1.58-.8-4.18-1.23-8.41-1.32-12.66-.02-.89-.78-1.32-1.58-1.21-4.73.67-9.58.67-14.31.01-.67-.09-1.33.16-1.54.87-.17.58.2,1.44.87,1.54,5.21.73,10.43.73,15.64-.01l-1.58-1.21c.09,4.47.57,8.93,1.41,13.33l1.21-1.58c-4.7.59-9.43.9-14.17.91l1.25,1.25c.03-4.16-.4-8.3-1.27-12.37-.34-1.57-2.75-.91-2.41.66h0Z"/><path class="cls-14" d="m172.54,599.02l8.74-5.81-1.88-1.08c.47,5.52.5,11.06.04,16.58-.11,1.34-.25,2.68-.42,4.01-.09.68-.37,1.57-.31,2.25l-.07.47,1.01-.04s-.62-.64-.68-.69c-2.04-2.08-4.08-4.15-6.12-6.23-1.13-1.15-2.9.62-1.77,1.77,1.25,1.27,2.49,2.54,3.74,3.81,1.05,1.07,2.08,2.42,3.29,3.31,3.05,2.25,3.29-3.51,3.48-5.12.8-6.68.9-13.42.32-20.12-.07-.88-1.03-1.65-1.88-1.08-2.91,1.94-5.83,3.87-8.74,5.81-1.33.89-.08,3.05,1.26,2.16h0Z"/><path class="cls-14" d="m154.93,611.48c-7.87,3.59-15.93,6.4-24.14,9.09-6.91,2.26-13.94,5.01-18.99,10.46l2.09.55c-.24-1.76,1.11-3.66,1.35-5.4.27-1.96.05-3.96,0-5.93-.09-4.34.09-8.67.34-13,.49-8.58,1.24-17.16.82-25.75l-1.88,1.08c12.4,8.61,26.09,17.77,41.9,16.73,1.6-.1,1.61-2.61,0-2.5-15.36,1.01-28.6-8.03-40.64-16.39-.77-.53-1.93.17-1.88,1.08.43,8.76-.36,17.5-.85,26.24-.24,4.33-.41,8.67-.3,13,.05,2.01.35,4.14-.18,6.11s-1.37,3.38-1.09,5.4c.13.94,1.51,1.18,2.09.55,5.04-5.44,12.14-7.97,19.03-10.19,8.04-2.59,15.91-5.46,23.6-8.97,1.46-.67.19-2.82-1.26-2.16h0Z"/><path class="cls-14" d="m98.3,577.12c-13.6-3.85-27.27-7.47-41-10.84-1.56-.38-2.23,2.03-.66,2.41,13.73,3.37,27.4,6.99,41,10.84,1.55.44,2.21-1.97.66-2.41h0Z"/><path class="cls-14" d="m94.49,591.36c-12.94-.52-25.86-1.28-38.77-2.27-1.6-.12-1.6,2.38,0,2.5,12.91.99,25.83,1.75,38.77,2.27,1.61.06,1.61-2.44,0-2.5h0Z"/><path class="cls-14" d="m91.51,607.4c-12.51,1.3-24.9,3.59-37.05,6.88-1.55.42-.89,2.83.66,2.41,11.93-3.23,24.09-5.51,36.38-6.79,1.58-.16,1.6-2.67,0-2.5h0Z"/><path class="cls-14" d="m98.34,626.45c-10.31,2.46-20.44,5.64-30.3,9.53-1.48.58-.84,3,.66,2.41,9.87-3.88,19.99-7.06,30.3-9.53,1.56-.37.9-2.78-.66-2.41h0Z"/><path class="cls-14" d="m633.81,906.85c7.93-1.67,16.02-2.21,24.1-1.7l-2.5-2.5c0,.43-.86.94-1.2,1.22-.9.72-1.82,1.41-2.73,2.12-1.89,1.46-3.77,2.92-5.66,4.39-3.71,2.87-7.42,5.75-11.13,8.62-1.76,1.37-.23,4.31,1.77,4.27,4.9-.09,9.61-1.43,14.33-2.63,4.36-1.11,8.91-2.14,13.4-1.18,3.14.67,4.48-4.14,1.33-4.82-4.97-1.07-9.93-.33-14.81.87s-9.37,2.67-14.25,2.76l1.77,4.27c4.1-3.18,8.2-6.35,12.3-9.53,2.02-1.56,4.03-3.13,6.05-4.69,1.91-1.48,3.87-3,3.84-5.66-.02-1.41-1.13-2.41-2.5-2.5-8.52-.54-17.08.12-25.43,1.88-3.15.66-1.82,5.48,1.33,4.82h0Z"/><path class="cls-14" d="m689.08,869.73c5.43-.16,10.85-.3,16.28-.43,2.71-.06,5.43-.12,8.14-.18,1.32-.03,2.63-.05,3.95-.08s2.91.19,4.19-.08h.18c.7.05.4-.36-.92-1.22-.02,0,0-.08-.03-.06-.26.17-.5.78-.71,1.04-.72.94-1.53,1.83-2.35,2.68-1.61,1.66-3.37,3.19-5.2,4.6-3.86,2.98-8,5.61-12.05,8.33-5.08,3.42-10.16,6.84-15.24,10.27-1.77,1.19-1.54,3.93.6,4.57s4.09.3,6.17,0,4.26-.62,6.39-.94c4.26-.62,8.52-1.25,12.78-1.87,1.34-.2,2.07-1.89,1.75-3.08-.39-1.43-1.73-1.94-3.08-1.75-3.93.58-7.87,1.15-11.8,1.73-1.97.29-3.93.58-5.9.86-1.61.24-3.39.7-4.99.22l.6,4.57c5.08-3.42,10.16-6.84,15.24-10.27,4.63-3.12,9.36-6.14,13.72-9.63,1.97-1.58,3.85-3.27,5.54-5.15s3.87-4.1,3.5-6.74c-.51-3.63-4.46-3.16-7.16-3.11-2.96.06-5.92.12-8.88.18-6.91.15-13.82.33-20.72.53-3.21.09-3.22,5.09,0,5h0Z"/><path class="cls-14" d="m761.87,895.99l4.53-.03c.7,0,1.41-.02,2.11-.02.14,0,.28,0,.42.01l-.25-.02c-.83-.35-1.17-.97-1.01-1.87-.08.27-.07.26.02,0-.16.24-.16.25,0,.04-.07.08-.14.16-.22.23-.17.18-.35.35-.54.53-.37.34-.75.67-1.14.99-.11.09-.22.18-.34.27.22-.17.22-.17-.01,0-.17.13-.35.26-.53.39-.44.32-.89.64-1.34.95-3.55,2.44-7.46,4.87-9.38,8.91-.79,1.67.14,3.76,2.16,3.76,5.46,0,10.93-1.04,15.98-3.12,1.21-.49,2.2-1.68,1.75-3.08-.38-1.16-1.78-2.28-3.08-1.75-4.83,1.98-9.59,2.93-14.65,2.94l2.16,3.76c.18-.38.38-.76.6-1.12.11-.18.22-.35.34-.52.06-.09.12-.17.18-.25.21-.31-.37.43.06-.07.57-.66,1.18-1.28,1.84-1.85.16-.14.32-.28.49-.41.07-.06.53-.42.33-.27s.27-.2.35-.26c.2-.15.41-.3.61-.44.77-.55,1.56-1.08,2.34-1.61,1.64-1.12,3.28-2.27,4.74-3.62.86-.8,1.69-1.72,2.04-2.87.47-1.57-.13-3.38-1.63-4.16-1.34-.69-2.95-.48-4.41-.47l-4.53.03c-1.31,0-2.56,1.14-2.5,2.5s1.1,2.51,2.5,2.5h0Z"/><path class="cls-5" d="m20.98,817.36c5.9-2.07,12.22-2.66,18.38-1.5l-1.75-3.08c-1.08,3.02-3.72,5.23-6.02,7.34-2.58,2.36-5.21,4.86-6.64,8.12-.71,1.61.08,3.85,2.16,3.76,7.2-.31,14.35-1.57,21.2-3.8,3.05-.99,1.74-5.82-1.33-4.82-6.45,2.1-13.1,3.33-19.87,3.62l2.16,3.76c1.42-3.22,4.09-5.46,6.62-7.8,2.76-2.54,5.26-5.26,6.55-8.85.43-1.2-.49-2.84-1.75-3.08-7.03-1.32-14.27-.87-21.04,1.5-1.27.45-2.12,1.71-1.75,3.08.34,1.24,1.8,2.2,3.08,1.75h0Z"/><path class="cls-5" d="m39.24,771.93c8.96-3.31,18.25-5.73,27.7-7.16.55-.08,1.09-.18,1.64-.24.11-.01.55-.05.55-.04-.1.13-.77-.78-.8-.8-.33-.27.16-.36-.07-.13-.07.06-.1.37-.13.46-.16.42-.45.85-.67,1.26-1.09,1.96-2.28,3.86-3.55,5.7-2.49,3.6-5.4,6.8-8.45,9.93-3.23,3.32-6.49,6.8-8.34,11.11-.85,1.99.54,4.18,2.82,3.67,8.6-1.9,16.95-4.63,25.06-8.06,1.24-.53,1.52-2.36.9-3.42-.75-1.29-2.17-1.43-3.42-.9-7.69,3.26-15.71,5.76-23.86,7.56l2.82,3.67c1.81-4.21,4.98-7.44,8.12-10.68,3.46-3.56,6.66-7.33,9.41-11.47,1.96-2.95,7.24-9.87,2.13-12.46-1.24-.63-2.54-.41-3.86-.22-1.41.2-2.81.42-4.21.65-2.65.45-5.28.98-7.89,1.59-5.85,1.35-11.6,3.08-17.23,5.16-1.27.47-2.13,1.69-1.75,3.08.33,1.22,1.8,2.22,3.08,1.75h0Z"/><path class="cls-5" d="m92.62,789.16l7.75-1.61c.43-.09,2.27-.77,2.72-.42.11.09.1.54.07.74-.24,1.61-2.52,3.16-3.6,4.2-.95.9-1.89,1.81-2.84,2.71-.85.82-1.78,1.6-2.34,2.66-1.26,2.39.19,5.03,2.76,5.52,2.17.41,4.62-.32,6.74-.75,4.73-.96,9.36-2.37,13.84-4.17,1.25-.5,2.13-1.67,1.75-3.08-.33-1.19-1.82-2.25-3.08-1.75-3.25,1.31-6.58,2.41-9.97,3.28-1.66.43-3.33.8-5.02,1.11-.84.16-1.69.34-2.53.43-.1.01-.74.02-.75.04h.04c.23.16.44.33.64.51v1.33c.09-.51.72-.9,1.1-1.27.59-.57,1.18-1.13,1.77-1.7,1.13-1.08,2.28-2.15,3.39-3.25,2.02-2.01,3.6-4.54,2.95-7.49-.3-1.34-1.13-2.62-2.31-3.35-1.4-.87-3-.82-4.55-.56-3.3.55-6.58,1.35-9.85,2.03-1.32.27-2.09,1.83-1.75,3.08.38,1.37,1.75,2.02,3.08,1.75h0Z"/><path class="cls-11" d="m38.52,113.08c-4.99,7.01-8.28,15.15-9.57,23.66-.24,1.57,2.17,2.25,2.41.66,1.26-8.33,4.44-16.2,9.32-23.07.93-1.31-1.23-2.56-2.16-1.26h0Z"/><path class="cls-11" d="m27.38,159.3c-.89,6.01-1.05,12.08-.38,18.12.07.68.52,1.24,1.25,1.25.62,0,1.32-.58,1.25-1.25-.64-5.8-.56-11.68.29-17.45.1-.67-.17-1.34-.87-1.54-.59-.17-1.44.21-1.54.87h0Z"/><path class="cls-11" d="m31.85,209.3c1.79,3.36,4,6.49,6.55,9.32.45.5,1.31.46,1.77,0,.5-.5.45-1.26,0-1.77-2.41-2.67-4.47-5.63-6.16-8.81-.32-.6-1.14-.78-1.71-.45-.6.35-.77,1.11-.45,1.71h0Z"/><path class="cls-11" d="m159.1,273.53c6.18.22,12.37-.87,18.09-3.21.63-.26,1.06-.83.87-1.54-.16-.59-.91-1.13-1.54-.87-5.54,2.26-11.45,3.33-17.43,3.12-1.61-.06-1.61,2.44,0,2.5h0Z"/><path class="cls-11" d="m219.1,255.29c4.46-3.34,9.24-6.23,14.27-8.62.61-.29.77-1.16.45-1.71-.36-.62-1.1-.74-1.71-.45-5.03,2.39-9.81,5.28-14.27,8.62-.54.4-.82,1.08-.45,1.71.31.53,1.17.86,1.71.45h0Z"/><path class="cls-11" d="m281.03,226.17c3.49-3.04,7.26-5.73,11.25-8.07,1.39-.81.13-2.97-1.26-2.16-4.17,2.44-8.11,5.28-11.75,8.46-.51.44-.45,1.31,0,1.77.51.51,1.26.44,1.77,0h0Z"/><path class="cls-11" d="m327.44,202.99c6.17-3.42,12.95-5.69,19.95-6.59.67-.09,1.24-.51,1.25-1.25,0-.61-.58-1.34-1.25-1.25-7.46.96-14.64,3.28-21.22,6.93-1.41.78-.15,2.94,1.26,2.16h0Z"/><path class="cls-11" d="m392.13,194.67c8.62-1.06,17.31,1.19,24.34,6.3,1.3.95,2.55-1.22,1.26-2.16-7.32-5.33-16.61-7.74-25.6-6.64-1.58.19-1.6,2.7,0,2.5h0Z"/><path class="cls-11" d="m509.08,286.75c3.95,3.32,7.42,7.18,10.24,11.5.88,1.34,3.04.09,2.16-1.26-2.94-4.49-6.52-8.55-10.63-12-.52-.43-1.26-.51-1.77,0-.45.45-.52,1.33,0,1.77h0Z"/><path class="cls-11" d="m536.75,322.36c2.11,2.64,4.22,5.28,6.33,7.91.41.51,1.35.46,1.77,0,.5-.54.44-1.22,0-1.77-2.11-2.64-4.22-5.28-6.33-7.91-.41-.51-1.35-.46-1.77,0-.5.54-.44,1.22,0,1.77h0Z"/><path class="cls-11" d="m574.37,440.11c-.1,5.25-.76,10.46-1.97,15.57-.37,1.56,2.04,2.23,2.41.66,1.26-5.32,1.96-10.77,2.06-16.23.03-1.61-2.47-1.61-2.5,0h0Z"/><path class="cls-11" d="m558.95,483.52c-3.17,3.69-6.34,7.37-9.52,11.06-.44.51-.5,1.27,0,1.77.45.45,1.33.51,1.77,0,3.17-3.69,6.34-7.37,9.52-11.06.44-.51.5-1.27,0-1.77-.45-.45-1.33-.51-1.77,0h0Z"/><path class="cls-11" d="m509.46,516.74c-5.02,2.62-10.04,5.25-15.05,7.87-1.43.75-.16,2.9,1.26,2.16,5.02-2.62,10.04-5.25,15.05-7.87,1.43-.75.16-2.9-1.26-2.16h0Z"/><path class="cls-11" d="m455.04,532.88c-4.32.79-8.68,1.27-13.06,1.46-1.6.07-1.61,2.57,0,2.5,4.61-.2,9.19-.72,13.73-1.55.66-.12,1.04-.93.87-1.54-.19-.7-.87-.99-1.54-.87h0Z"/><path class="cls-11" d="m383.4,533.06c-5.28-.42-10.57-.84-15.85-1.27-1.6-.13-1.6,2.37,0,2.5,5.28.42,10.57.84,15.85,1.27,1.6.13,1.6-2.37,0-2.5h0Z"/><path class="cls-11" d="m324.71,519.71c-3.95-2.65-7.9-5.29-11.85-7.94-.56-.38-1.38-.11-1.71.45-.36.61-.11,1.33.45,1.71,3.95,2.65,7.9,5.29,11.85,7.94.56.38,1.38.11,1.71-.45.36-.61.11-1.33-.45-1.71h0Z"/><path class="cls-11" d="m276.82,500.17c-5.86-1.79-12.06-2.09-18.08-.96-1.58.3-.91,2.71.66,2.41,5.58-1.05,11.33-.69,16.75.96,1.54.47,2.2-1.94.66-2.41h0Z"/><path class="cls-11" d="m230.88,512.64c-4.05,2.58-7.67,5.82-10.65,9.59-.42.53-.52,1.25,0,1.77.43.43,1.35.53,1.77,0,2.85-3.61,6.27-6.73,10.15-9.2.57-.36.8-1.11.45-1.71-.33-.57-1.14-.81-1.71-.45h0Z"/><path class="cls-11" d="m230.39,648.51c1.17,6.11,3.96,11.79,7.98,16.52,1.04,1.23,2.81-.55,1.77-1.77-3.75-4.41-6.25-9.75-7.34-15.42-.3-1.58-2.71-.91-2.41.66h0Z"/><path class="cls-11" d="m253.43,692.77c2.09,6.15,6.38,11.43,12.01,14.68,1.4.81,2.66-1.35,1.26-2.16-5.06-2.92-8.98-7.65-10.86-13.19-.51-1.52-2.93-.86-2.41.66h0Z"/><path class="cls-11" d="m288.61,729.99c5.79,3.45,11.58,6.89,17.37,10.34,1.39.82,2.64-1.34,1.26-2.16-5.79-3.45-11.58-6.89-17.37-10.34-1.39-.82-2.64,1.34-1.26,2.16h0Z"/><path class="cls-11" d="m340.73,757.93c5.96,2.55,10.96,6.96,14.17,12.59.8,1.4,2.96.14,2.16-1.26-3.4-5.97-8.75-10.79-15.07-13.49-.62-.26-1.34-.19-1.71.45-.31.53-.18,1.44.45,1.71h0Z"/><path class="cls-11" d="m365.68,791.71c1.06,3.43,2.12,6.85,3.18,10.28.47,1.53,2.89.88,2.41-.66l-3.18-10.28c-.47-1.53-2.89-.88-2.41.66h0Z"/><path class="cls-11" d="m384.58,909.29c.16,4.37,1.25,8.63,3.18,12.55.3.61,1.16.77,1.71.45.62-.36.75-1.1.45-1.71-1.73-3.52-2.69-7.38-2.84-11.29-.06-1.6-2.56-1.61-2.5,0h0Z"/><path class="cls-11" d="m399.02,949.44c3.2,5.48,6.92,10.64,11.1,15.42,1.06,1.21,2.82-.56,1.77-1.77-4.04-4.62-7.62-9.61-10.71-14.91-.81-1.39-2.97-.13-2.16,1.26h0Z"/><path class="cls-11" d="m430.68,986.25c2.44,2.34,4.71,4.86,6.79,7.53.4.52,1.35.46,1.77,0,.51-.55.43-1.21,0-1.77-2.08-2.67-4.34-5.19-6.79-7.53-.47-.45-1.3-.5-1.77,0s-.5,1.28,0,1.77h0Z"/></svg>